<svg xmlns="http://www.w3.org/2000/svg" viewBox="0 0 88.502 303.37"><defs><style>.a{fill:#3f5d45;}</style></defs><path class="a" d="M-8885.51-500.489a2.943,2.943,0,0,1-.633-3.207,2.938,2.938,0,0,1,2.726-1.8,2.96,2.96,0,0,1,2.917,2.917,2.938,2.938,0,0,1-1.8,2.725,2.928,2.928,0,0,1-1.129.226A2.938,2.938,0,0,1-8885.51-500.489Zm1.874-7.894c-.253,0-.362-.181-.362-.431,0-3.96.288-5.077,1.945-7.487,1.979-2.913,2.52-4.461,2.52-7.34,0-4.177-1.907-5.9-4.391-5.9-2.051,0-3.744,1.367-3.744,2.662a1.086,1.086,0,0,0,.541,1.007,2.759,2.759,0,0,1,1.222,2.124,2.554,2.554,0,0,1-.757,1.968,2.556,2.556,0,0,1-1.978.733,2.635,2.635,0,0,1-1.959-.793,2.628,2.628,0,0,1-.741-1.979c0-3.455,4.139-6.7,8.782-6.7,5.328,0,8.459,2.808,8.459,6.8,0,3.06-1.114,4.968-5.615,8.53-2.736,2.16-3.274,2.989-3.274,4.968a4.474,4.474,0,0,0,.179,1.153.823.823,0,0,1-.809.684Zm1.262-33.583c0-.574.181-4.427.181-9.935a53.131,53.131,0,0,0-.143-5.577c3.058.9,4.1,1.26,4.463,1.619h.538v-11.271a59.539,59.539,0,0,0-.25-7.02c5.074.362,5.615.829,5.615,1.369,0,.36-.252.61-1.262,1.079v6.694h1.938c2.086-2.772,2.339-2.986,2.662-2.986.362,0,.72.25,2.125,1.655,1.152,1.15,1.333,1.367,1.333,1.655,0,.252-.181.4-.469.4h-7.6v8.423h1.343c1.619-2.124,1.8-2.231,2.124-2.231.431,0,.791.217,2.122,1.367,1.4,1.224,1.621,1.4,1.621,1.765s-.181.541-1.116,1.331V-550c0,2.734.181,5.9.181,7.306,0,1.081-1.26,1.693-2.917,1.693-1.26,0-1.438-.181-1.438-1.369v-1.224h-6.984v1.3c0,1.117-.612,1.729-2.665,1.729C-8882.273-540.565-8882.374-540.746-8882.374-541.965Zm4.065-12.779v10.44l6.978,0v-10.835h-6.547A1.566,1.566,0,0,1-8878.309-554.744Zm-20.726,13.464a1.753,1.753,0,0,1-.586-1.338c0-.538.253-.972,1.188-1.872a5.232,5.232,0,0,0,1.655-4.067c0-.214.326-.179.434,0a8.225,8.225,0,0,1,1.26,4.717,2.8,2.8,0,0,1-2.556,2.986,1.758,1.758,0,0,1-.236.016A1.738,1.738,0,0,1-8899.034-541.279Zm4.739-1.948c0-.469.071-.936.143-1.691a5.137,5.137,0,0,0-.719-3.853c-.146-.179.107-.252.324-.179a5.064,5.064,0,0,1,3.783,4.713c0,1.657-.828,2.522-2.2,2.522A1.5,1.5,0,0,1-8894.295-543.227Zm4.32-1.153a6.484,6.484,0,0,0-2.341-5.039c-.182-.145.071-.252.288-.217,4.036.864,5.367,2.879,5.367,4.936l0,0a1.862,1.862,0,0,1-.453,1.452,1.865,1.865,0,0,1-1.383.637C-8889.473-542.615-8889.975-543.372-8889.975-544.38Zm3.851-1.115a5.161,5.161,0,0,0-3.241-4.463c-.179-.107-.071-.288.146-.288,4.862.1,6.52,2.374,6.52,4.425l0,0c0,1.117-.541,2.2-1.872,2.2C-8885.3-543.622-8885.977-544.089-8886.124-545.494Zm-13.456-7.239a22.677,22.677,0,0,0,2.339-.034c1.657-.074,3.1-.181,4.463-.252v-2.989h-1.586a27.652,27.652,0,0,0-3.67.252l-.359-1.26a32.015,32.015,0,0,0,4.029.288h1.586V-560.9h-2.558v.9c0,1.043-.647,1.331-1.907,1.331-1.188,0-1.331-.145-1.331-1.043,0-.719.181-4,.181-8.892,0-2.986,0-4.067-.109-5.256,2.52.757,3.42,1.224,3.743,1.548l7.7,0c1.224-1.655,1.331-1.727,1.584-1.727.217,0,.4.036,1.765,1.15,1.114.938,1.3,1.117,1.3,1.441,0,.252-.071.357-.972,1.115v3.1c0,2.734.214,5.4.214,6.3,0,1.188-.611,1.619-2.52,1.619-.79,0-.936-.252-.936-1.15v-.433h-2.7v4.177h1.188c1.836-2.231,2.017-2.412,2.267-2.412.326,0,.434.036,1.8,1.331.974.938,1.116,1.153,1.116,1.4s-.107.4-.359.4h-6.018v2.7c2.124-.217,4.1-.469,6.3-.757a.17.17,0,0,1,.2.112.169.169,0,0,1-.094.212,102.524,102.524,0,0,1-14,5c-.215.757-.467.974-.791.974C-8898.248-547.764-8898.572-548.34-8899.58-552.733Zm12.52-14.539c-.719,1.079-1.476,2.2-2.593,3.887v1.765h3.024v-5.939C-8886.736-567.489-8886.879-567.379-8887.061-567.272Zm-8.275,5.651h2.879v-3.1a1.519,1.519,0,0,1-1.438,1.3c-.649,0-.974-.541-.974-1.188,0-.467.109-1.043.182-1.836a3.179,3.179,0,0,0-.648-2.3Zm5.688-9.395v6.516c.288-1.224.54-2.734.686-3.6.106-.612.143-1.043.214-1.693a12.9,12.9,0,0,1,2.124,1.153l0-2.953h-2.479C-8889.145-571.378-8889.287-571.268-8889.648-571.016Zm-5.687-.172v1.934a4.025,4.025,0,0,1,2.879,3.1V-570c0-.469,0-1.045-.035-1.584h-2.268A3.81,3.81,0,0,1-8895.336-571.188Zm12.991-14.088c0-1.007.321-5.508.321-17.1v-3.491h-1.687c.5.576.576.755.576,1.007,0,.324-.179.433-.719.433h-5.649v7.163h.217c1.693-2.088,1.8-2.2,2.124-2.2.36,0,.577.107,2.2,1.548,1.117.972,1.332,1.26,1.332,1.584s-.072.431-1.079,1.26v1.872c0,2.736.179,5,.179,6.011,0,1.081-1.331,1.836-2.591,1.836-1.332,0-1.655-.324-1.655-1.512v-.826h-5.336v1.655c0,1.115-.937,1.729-2.627,1.729-1.3,0-1.548-.181-1.548-1.4,0-.576.217-3.96.217-7.6,0-2.3,0-3.741-.107-5.506,2.77.683,4,1.15,4.425,1.548h.181v-7.163h-2.053a22.486,22.486,0,0,0-3.634.252l-.326-1.222a36.152,36.152,0,0,0,3.96.252h2.053v-2.52c0-1.619,0-2.627-.035-3.491-2.089.181-4.14.288-6.192.288-.214,0-.288-.36-.071-.4a44.127,44.127,0,0,0,11.159-4.427,6.305,6.305,0,0,0,1.117-.793c3.851,2.772,4.317,3.348,4.317,3.96,0,.576-.5.612-2.339.467-1.043.145-2.088.288-3.1.4a.323.323,0,0,1,.035.181c0,.36-.214.467-.826.791v5.544h1.152c1.905-2.843,2.051-2.879,2.3-2.879.288,0,.431.107,1.69,1.438h2.341a94.719,94.719,0,0,0-.288-10.331c4.5.612,5.615,1.045,5.615,1.514,0,.538-.323.791-1.188,1.293v7.523h4a86.053,86.053,0,0,0-.288-10.295c4.427.541,5.939.972,5.939,1.441s-.324.826-1.3,1.224l.007,7.635c1.513-2.808,1.729-3.024,1.943-3.024s.362.074,1.334,1.369c1.078,1.476,1.152,1.581,1.152,1.907s-.181.467-.612.467h-3.817v3.241c0,11.662.181,15.01.181,16.772,0,1.043-.721,1.729-2.81,1.729-1.4,0-1.727-.217-1.727-1.4v-2.124h-4v2.015c0,1.224-1.117,1.657-2.808,1.657C-8882.131-583.975-8882.345-584.335-8882.345-585.275Zm4.467-3.1h4v-9.252h-4Zm-16.233-7.771v7.74l5.327,0v-8.135h-4.858A2.978,2.978,0,0,1-8894.111-596.142Zm16.233-2.2h4v-7.523h-4Zm45.723-4.179v-36H-8831v36Zm-53.889-29.225c0-1.91.107-2.522,8.53-13.536h-4.179a24.852,24.852,0,0,0-3.527.252l-.359-1.224a29.365,29.365,0,0,0,3.887.252l4.107,0c2.051-2.269,2.2-2.341,2.555-2.341.4,0,.612.107,2.053,1.331,1.62,1.4,1.8,1.657,1.8,1.981,0,.467-.038.61-2.665,1.943-6.516,7.487-7.63,9.035-7.63,9.826s.143,1.115,5.4,1.115c3.815,0,5.254-.431,6.082-1.26a15,15,0,0,0,2.844-5.506c.071-.217.288-.145.288.071-.181,2.951-.217,3.958-.217,4.427a2.872,2.872,0,0,0,.576,1.584,3.265,3.265,0,0,1,.577,1.907c0,1.691-1.079,2.879-10.834,2.879C-8885.036-628.04-8886.044-629.441-8886.044-631.746Zm-12.53-5.184c0-1.007.143-6.7.143-11.878,0-4.141,0-6.156-.143-8.242,3.417.862,4.463,1.367,4.786,1.8h1.548c1.441-1.87,1.584-1.979,1.908-1.979.359,0,.469,0,2.053,1.3,1.366,1.117,1.476,1.3,1.476,1.622,0,.357-.073.467-1.045,1.3v3.766c0,5.9.217,8.53.217,9.466,0,1.117-.72,1.765-2.986,1.765-.936,0-1.225-.36-1.225-1.4v-.791h-2.735v3.058c0,1.081-.972,1.55-2.918,1.55C-8898.251-635.6-8898.574-635.78-8898.574-636.93Zm4-17.105v13.1l2.731,0v-13.605h-1.941A2.975,2.975,0,0,1-8894.578-654.035Zm62.423,15.515v-36H-8831v36Zm-55.369-6.9c1.152-1.908,3.06-7.416,3.96-12.348a24.283,24.283,0,0,0,.4-2.808c5.759,1.331,6.082,1.693,6.082,2.124,0,.576-.252.755-1.619,1.188a38.988,38.988,0,0,1-2.771,4.968h8.888c2.664-3.491,2.808-3.6,3.167-3.6s.576.074,2.556,2.088c1.224,1.224,1.4,1.438,1.4,1.765s-.146.467-.612.467h-15.87a37.431,37.431,0,0,1-5.22,6.372.184.184,0,0,1-.135.053C-8887.445-645.155-8887.6-645.29-8887.524-645.424Zm12.562-26.026a27.252,27.252,0,0,0-5.075-3.527c-4.1,3.455-9.825,4.932-18.429,4.644-.215,0-.253-.36-.036-.36,6.444-.5,11.555-2.448,15.01-5.939a33.488,33.488,0,0,0-4.644-1.476l-1.008,1.441a2.387,2.387,0,0,1-2.124,1.043c-1.583,0-3.06-.324-3.06-.972a1.471,1.471,0,0,1,.4-.793c1.619-2.088,2.986-3.958,4.175-5.794h-4.9a36.515,36.515,0,0,0-4.5.252l-.324-1.224a43.472,43.472,0,0,0,4.822.25h5.363c.864-1.331,1.619-2.662,2.341-4a15.974,15.974,0,0,0,.719-1.548h-5.327v.143c0,1.512-.9,1.979-2.808,1.979-1.152,0-1.4-.214-1.4-1.26,0-.431.146-2.662.146-4.463,0-1.943,0-3.6-.107-5.039,3.777.9,4.751,1.188,4.965,1.655h2.377v-3.887h-4.9a49.269,49.269,0,0,0-5.508.25l-.322-1.226a56.508,56.508,0,0,0,5.832.25h20.769c2.483-2.951,2.555-2.986,2.915-2.986s.467.036,2.2,1.584c1.4,1.26,1.515,1.4,1.515,1.727a.346.346,0,0,1-.1.3.346.346,0,0,1-.3.1h-10.4c-.036.179-.288.357-.538.538v3.348h2.808c1.872-2.017,1.979-2.088,2.3-2.088.362,0,.577.071,2.3,1.4,1.26.972,1.331,1.081,1.331,1.441,0,.322-.071.431-1.043,1.224v.755c0,1.765.182,4,.182,4.356,0,1.007-.865,1.655-2.953,1.655-1.477,0-1.729-.286-1.729-1.3v-.469h-11.15c3.6.974,4.21,1.4,4.21,1.945,0,.467-.4.755-1.729,1.15-.467.757-.972,1.584-1.513,2.448l11.485,0c2.484-3.024,2.663-3.2,3.022-3.2s.576.107,2.377,1.762c1.366,1.262,1.548,1.476,1.548,1.729,0,.288-.146.433-.4.433h-10.254c2.3.467,2.7.791,2.7,1.15,0,.433-.252.612-1.583,1.01a27.014,27.014,0,0,1-2.231,3.455,16.928,16.928,0,0,1,5.615,2.158c1.477.938,2.053,1.693,2.053,3.024a2.4,2.4,0,0,1-2.341,2.2A3.688,3.688,0,0,1-8874.963-671.451Zm-9.719-11.744c-.972,1.438-1.979,2.989-3.021,4.463,2.05.074,3.922.217,5.65.4a14.085,14.085,0,0,0,1.584-2.667,19.283,19.283,0,0,0,.864-2.2Zm7.452-6.982h3.2v-5.544h-3.2Zm-7.2,0h3.167v-5.544h-3.167Zm-7.128-5.044v5.044h3.168v-5.544h-2.556A4.827,4.827,0,0,1-8891.557-695.221Zm7.128-4.608v3.388h3.167v-3.889h-2.627C-8883.924-700.184-8884.177-700.005-8884.429-699.829Zm44.1,11.738c1.153.074,1.622.109,2.88.145,3.06.071,5.8.145,8.5.145a54.565,54.565,0,0,0,4.139-6.732,16.6,16.6,0,0,0,.9-1.943c5.22,1.872,5.47,2.053,5.47,2.629,0,.467-.467.648-1.871.791-2.52,1.943-4.428,3.384-7.09,5.256,2.591,0,5.182-.036,8.025-.071a6.326,6.326,0,0,0-2.591-2.484.188.188,0,0,1-.092-.223.191.191,0,0,1,.2-.136c6.229.033,8.532,2.7,8.532,5.108a2.653,2.653,0,0,1-.775,1.925,2.651,2.651,0,0,1-1.926.775,2.1,2.1,0,0,1-2.124-1.836,9.993,9.993,0,0,0-.609-1.908c-6.049,1.117-9.974,1.765-18.539,3.132-.359.683-.5.829-.829.829C-8838.6-682.69-8838.816-682.978-8840.333-688.091Zm-5.874,5.238a.2.2,0,0,1-.022-.266,12.913,12.913,0,0,0,2.16-5.8c.538-3.1.684-6.587.684-13.714,0-5.651-.107-8.061-.36-10.94,4.032,1.007,5,1.3,5.185,1.691h7.7v-.9a24.045,24.045,0,0,0-.215-3.886c5.689.357,6.373.755,6.373,1.3,0,.431-.181.61-1.477,1.186v2.3h7.018c2.594-3.022,2.7-3.132,3.061-3.132s.541.071,2.448,1.872c1.224,1.15,1.3,1.3,1.3,1.619,0,.217-.109.36-.4.36h-25.988a2.768,2.768,0,0,1-.684.431v7.344c0,2.377-.071,4.32-.215,6.011,1.15-1.4,1.655-3.886,1.655-6.911a10.8,10.8,0,0,0-.071-1.4,13.928,13.928,0,0,1,3.67.719V-706.7h-.541a22.526,22.526,0,0,0-3.636.252l-.324-1.224a37.276,37.276,0,0,0,3.96.252h.541a20.975,20.975,0,0,0-.146-3.062c3.563.288,4.1.469,4.1.864,0,.324-.181.469-.793.793v1.4h.865c1.548-2.017,1.654-2.16,1.942-2.16s.362.036,1.513,1.081c.647.61.972.9,1.117,1.079h2.771a20.959,20.959,0,0,0-.146-3.06c3.673.288,4.213.469,4.213.864,0,.324-.181.467-.793.791v1.4h2.089c1.69-2.124,1.8-2.269,2.124-2.269.288,0,.5.109,1.765,1.26,1.078.974,1.186,1.153,1.186,1.4,0,.217-.107.324-.467.324h-6.7c0,4.715.109,7.559.109,8.028,0,.862-.722,1.26-2.27,1.26-1.043,0-1.225-.181-1.225-1.079,0-.288.074-2.377.107-5.615a2.35,2.35,0,0,1-.431.214,8.179,8.179,0,0,1-4.14,6.192c2.16.576,2.448.791,2.448,1.15,0,.469-.4.686-1.8.9-1.152.793-2.2,1.548-3.312,2.3a2.95,2.95,0,0,1,1.3,2.412,2.489,2.489,0,0,1-2.52,2.448,1.743,1.743,0,0,1-1.872-1.262,6.129,6.129,0,0,0-3.562-4.246c-.217-.074-.146-.324.071-.362a12.356,12.356,0,0,1,4.9.219c.362-1.01.686-1.945,1.01-3.1a10.3,10.3,0,0,0,.253-1.26c.971.25,1.8.431,2.445.61,1.117-1.186,1.91-3.527,1.91-6.406a10.642,10.642,0,0,0-.074-1.4,19.345,19.345,0,0,1,3.387.61v-1.6h-8.207c0,4.644.107,7.487.107,7.954,0,.864-.719,1.262-2.16,1.262-1.045,0-1.224-.181-1.224-1.081,0-.288.071-2.412.109-5.725a2.228,2.228,0,0,1-.686.4c-.467,3.529-1.872,5.615-4.605,6.982a26.543,26.543,0,0,1-1.658,7.416,16.664,16.664,0,0,1-4.605,6.658.205.205,0,0,1-.121.04A.2.2,0,0,1-8846.207-682.853Zm27.342-16.9c0-.612.071-1.691.071-3.167,0-.972,0-1.765-.071-2.627,3.024.25,3.708.431,3.708.791,0,.288-.107.433-.864.793l-.01,2.126c0,.5.074.612.793.612s.972-.071,1.3-.648a16.676,16.676,0,0,0,1.224-2.808c.071-.217.288-.145.252.071-.109,1.153-.145,1.979-.145,2.412a1.179,1.179,0,0,0,.4.936,1.587,1.587,0,0,1,.541,1.26c0,.829-.829,1.548-3.887,1.548C-8818.362-698.457-8818.865-699-8818.865-699.757Zm-11.563-.462c0-.541.071-1.512.071-2.953,0-1.043,0-1.727-.035-2.374,3.131.36,3.491.5,3.491.864,0,.25-.107.357-.684.646v3.672c0,.793-.612,1.007-1.872,1.007C-8830.177-699.358-8830.429-699.644-8830.429-700.22Zm-69.082-13.469c2.953-2.41,5.435-7.882,5.939-15.693.071-.864.071-1.476.071-2.231,5.077,1.153,5.868,1.4,5.868,1.979,0,.324-.253.576-1.152.9a17,17,0,0,1-.612,3.06,9.772,9.772,0,0,0,2.846,3.96,6.752,6.752,0,0,0,1.55,1.043v-9.721c0-1.329,0-2.41-.109-3.67h-4.538c-.827,0-2.375.071-4.065.252l-.362-1.224c1.765.179,3.384.252,4.428.252h11.847c2.231-2.846,2.3-2.917,2.591-2.917s.434.036,2.053,1.619c1.117,1.079,1.331,1.331,1.331,1.619s-.252.4-.538.4h-7.234c-.074.217-.253.4-.793.686v6.551h2.664c2.268-3.024,2.377-3.132,2.734-3.132s.469.036,2.448,1.905c.974.9,1.3,1.262,1.3,1.586a.317.317,0,0,1-.092.268.324.324,0,0,1-.266.092h-8.8v6.763a29.554,29.554,0,0,0,4.679.324,66.594,66.594,0,0,0,9.757-.576c.215-.036.25.288.071.4-1.765,1.188-2.16,2.017-2.629,4.1a1.06,1.06,0,0,1-1.007.936,46.573,46.573,0,0,1-5.471.107c-6.082,0-8.856-1.3-11.123-3.42a12.8,12.8,0,0,1-3.6-7.128c-1.869,5.472-5.9,9.54-9.571,11.195a.2.2,0,0,1-.076.015C-8899.527-713.386-8899.668-713.564-8899.511-713.689Zm73.149-13.612c0-.972.252-6.911.252-18.1h-4.21c-.829,0-2.377.071-4.067.25l-.362-1.222c1.765.179,3.385.25,4.43.25h4.21c0-10.619-.035-11.733-.216-13.679,5.8.5,6.229.864,6.229,1.369,0,.4-.362.648-1.334,1.188v11.126h2.844c2.555-3.42,2.7-3.527,3.06-3.527.4,0,.541.071,2.627,2.124,1.331,1.331,1.4,1.476,1.4,1.729s-.181.4-.469.4h-9.462c0,10.762.179,16.953.179,17.889,0,1.045-.9,1.512-3.167,1.512C-8826-726-8826.361-726.143-8826.361-727.3Zm-14.067.076c0-.936.146-3.384.217-8.387l.1-10.869a31.96,31.96,0,0,1-5.865,5.22c-.182.107-.434-.143-.289-.288,2.592-2.915,5.58-8.783,7.919-15.622a19.308,19.308,0,0,0,.684-2.591c5.182,2.086,5.65,2.41,5.65,2.951s-.288.757-1.619,1.115a38.782,38.782,0,0,1-3.634,5.8c2.265.824,2.664,1.11,2.664,1.543,0,.322-.216.574-1.114.936v8.063c0,8.675.071,10.9.071,11.8,0,1.01-1.116,1.548-3.2,1.548C-8840.212-726-8840.429-726.288-8840.429-727.224Zm-57.632-8.09a2.174,2.174,0,0,1-.659-1.664,2.909,2.909,0,0,1,1.513-2.522,3.651,3.651,0,0,0,1.8-3.851c0-.217.252-.252.4-.071a9.586,9.586,0,0,1,1.441,2.2h8.315v-2.846a20.528,20.528,0,0,0-.217-2.986c5.759.36,6.442.755,6.442,1.3,0,.433-.179.612-1.475,1.188v3.348h7.3c1.907-2.053,2.086-2.162,2.483-2.162.432,0,.862.217,2.591,1.836,1.4,1.333,1.836,1.91,1.836,2.484,0,.648-.4,1.007-1.692,1.045a7.647,7.647,0,0,0-2.627.36c-.793.288-1.4.5-2.7,1.043-.217.071-.324.036-.253-.181.576-1.655.829-2.52,1.188-3.708l-20.909.007a7.38,7.38,0,0,1,.359,2.229,3.407,3.407,0,0,1-.962,2.524,3.418,3.418,0,0,1-2.493,1.036c-.057,0-.114.007-.171.007A2.168,2.168,0,0,1-8898.061-735.315Zm77.314-33.813c-.934,0-1.15-.145-1.331-.864-.4-1.584-.972-2.267-3.6-3.132-.215-.071-.215-.4,0-.4,1.945.036,2.771,0,3.853-.071a2.487,2.487,0,0,0,2.339-1.224,20.052,20.052,0,0,0,1.622-6.839h-16.6c-4.068,4.284-7.848,6.911-11.338,8.1-.215.071-.324-.252-.144-.36,2.3-1.224,6.442-5,9.143-9.468a51.259,51.259,0,0,0,4.786-10h-5.148a31.8,31.8,0,0,0-4.248.252l-.357-1.224a40.15,40.15,0,0,0,4.605.252h5.4c.4-1.3.79-2.629,1.114-4.032a27.761,27.761,0,0,0,.864-4.86c5.4,1.657,5.979,2.16,5.979,2.7,0,.5-.359.9-1.69,1.15a51.252,51.252,0,0,1-1.657,5.041h2.269c1.549-1.619,1.8-1.729,2.051-1.729.326,0,.5.071,1.981,1.15,1.3.938,1.367,1.081,1.367,1.369s-.107.4-1.15,1.15c-.369,1.119-.869,2.667-1.369,4.067h.54c1.584-1.619,1.727-1.691,2.015-1.691.324,0,.612.143,1.943,1.188,1.225.972,1.369,1.115,1.369,1.4,0,.357-.145.5-1.043,1.079-.326,1.188-.722,2.412-1.116,3.744l.174.007c1.512-1.622,1.657-1.657,1.945-1.657.359,0,.541.036,2.124,1.369,1.477,1.224,1.619,1.438,1.619,1.8s-.143.538-1.152,1.222c-.755,4.86-1.619,7.668-2.7,8.856a5.809,5.809,0,0,1-4.077,1.668C-8820.488-769.115-8820.617-769.119-8820.746-769.127Zm-13.035-13.245h11.05c.576-1.945,1.079-3.6,1.4-5h-8.924A32.72,32.72,0,0,1-8833.781-782.373Zm6.379-11.016a52.115,52.115,0,0,1-2.45,5.289h3.491c.684-2.16,1.26-3.889,1.619-5.291Zm-71.208,21.275c2.374.181,3.815.252,5.075.252h19.22c2.953-3.708,2.989-3.744,3.349-3.744.4,0,.5.036,2.52,2.053,1.91,1.907,1.981,2.015,1.981,2.267s-.182.4-.47.4h-26.6c-1.26,0-2.665.071-4.716.252Zm59.8.083a2.1,2.1,0,0,1-.728-1.519,2.274,2.274,0,0,1,1.043-1.908,4.474,4.474,0,0,0,2.093-3.712c0-.217.141-.288.286-.107l0,0a6.365,6.365,0,0,1,1.765,4.5c0,1.331-.9,3.239-2.846,3.239a2.1,2.1,0,0,1-.24.014A2.1,2.1,0,0,1-8838.81-772.031Zm6.223-1.407a1.647,1.647,0,0,1-.406-1.333c.217-2.3.071-3.672-.5-4.644-.107-.181-.036-.324.181-.252,3.063.858,4.213,2.982,4.213,4.568a2.2,2.2,0,0,1-2.2,2.2h-.068A1.639,1.639,0,0,1-8832.587-773.438Zm5.03-1.112a1.519,1.519,0,0,1-.424-1.24c.035-1.584-.036-3.1-1.079-4.141-.146-.143-.073-.288.143-.252,3.168.5,4.678,2.124,4.678,4.067a2.1,2.1,0,0,1-2.086,2.017c-.048,0-.095.007-.142.007A1.529,1.529,0,0,1-8827.557-774.55Zm4.907-1.018a1.616,1.616,0,0,1-.545-1.157c-.106-1.581-.288-3.02-1.366-3.706v0c-.182-.107-.107-.324.106-.288,3.024.288,4.933,1.4,4.933,3.6a2,2,0,0,1-1.908,1.945c-.054.005-.106.008-.16.008A1.612,1.612,0,0,1-8822.649-775.569Zm-13.8-19.777a1.944,1.944,0,0,1-.538-1.532c0-2.341-.288-3.779-1.477-4.572-.171-.109-.066-.321.147-.324,3.742.182,5.937,2.053,5.937,4.139a2.664,2.664,0,0,1-.665,1.983,2.665,2.665,0,0,1-1.89.9l-.109,0A1.949,1.949,0,0,1-8836.448-795.346Zm-1.87-6.428h0Z" transform="translate(8900.001 803)"/></svg>