<svg xmlns="http://www.w3.org/2000/svg" viewBox="0 0 1000 1000"><defs><style>.a{fill:#3f5d45;}</style></defs><path class="a" d="M-7270.628-1162.293a498.313,498.313,0,0,1-158.928-107.157,498.328,498.328,0,0,1-107.153-158.932A496.9,496.9,0,0,1-7576-1623.005a496.883,496.883,0,0,1,39.291-194.622,498.343,498.343,0,0,1,107.153-158.93,498.36,498.36,0,0,1,158.928-107.151A496.863,496.863,0,0,1-7076.007-2123a496.855,496.855,0,0,1,194.624,39.293,498.337,498.337,0,0,1,158.934,107.151,498.366,498.366,0,0,1,107.157,158.93A496.865,496.865,0,0,1-6576-1623.005a496.874,496.874,0,0,1-39.292,194.623A498.373,498.373,0,0,1-6722.45-1269.45a498.29,498.29,0,0,1-158.934,107.157A496.864,496.864,0,0,1-7076.007-1123,496.865,496.865,0,0,1-7270.628-1162.293Zm4.868-909.9a485.883,485.883,0,0,0-154.956,104.476,485.869,485.869,0,0,0-104.474,154.956,484.435,484.435,0,0,0-38.31,189.754,484.465,484.465,0,0,0,38.31,189.762,485.878,485.878,0,0,0,104.474,154.958,485.9,485.9,0,0,0,154.956,104.478,484.473,484.473,0,0,0,189.754,38.31,484.5,484.5,0,0,0,189.762-38.31,485.879,485.879,0,0,0,154.959-104.478,485.883,485.883,0,0,0,104.476-154.958,484.465,484.465,0,0,0,38.31-189.762,484.435,484.435,0,0,0-38.31-189.754,485.875,485.875,0,0,0-104.476-154.956,485.855,485.855,0,0,0-154.959-104.476,484.467,484.467,0,0,0-189.762-38.31A484.434,484.434,0,0,0-7265.761-2072.192Zm14.6,863.829A448.469,448.469,0,0,1-7394.2-1304.8a448.486,448.486,0,0,1-96.437-143.037A447.211,447.211,0,0,1-7526-1623a447.21,447.21,0,0,1,35.363-175.163A448.486,448.486,0,0,1-7394.2-1941.2a448.469,448.469,0,0,1,143.039-96.437A447.171,447.171,0,0,1-7076-2073a447.173,447.173,0,0,1,175.164,35.363A448.469,448.469,0,0,1-6757.8-1941.2a448.478,448.478,0,0,1,96.437,143.037A447.209,447.209,0,0,1-6626-1623a447.209,447.209,0,0,1-35.361,175.163A448.478,448.478,0,0,1-6757.8-1304.8a448.469,448.469,0,0,1-143.039,96.437A447.208,447.208,0,0,1-7076-1173,447.206,447.206,0,0,1-7251.163-1208.363Zm-26.192-156.375c22.61,8.527,50.75,19.139,98.53,19.139,82.943,0,134.739-27.754,163.586-51.035,37.213-30.035,58.555-71.284,58.555-113.169,0-53.444-23-84.788-60.12-118.034l-65.25-58.658c-28.189-25.377-55.711-54.036-55.711-100.441,0-53.1,46.125-90.18,112.163-90.18,26.2,0,53.98,8.5,74.323,22.73,17.6,12.317,38.583,35.034,38.583,73.323a143.4,143.4,0,0,1-6.041,41.253l-.553,1.993h8.8l50.581-140.017-11-2.206c-5,11.433-11.421,19.057-26.392,19.057-13.8,0-27.374-4.63-43.094-9.99-21.428-7.309-48.1-16.4-85.2-16.4-50.9,0-98.582,14.614-134.249,41.15-35.872,26.689-55.629,62.584-55.629,101.073,0,56.234,29.018,94.017,72.585,133.446l52.043,47.634c30.832,28.478,43.987,55.671,43.987,90.921,0,34.712-12.324,64.023-35.642,84.761-23.93,21.283-58.506,32.532-99.987,32.532-28.8,0-59.835-9.556-83.027-25.563-19.317-13.33-42.342-37.266-42.342-75.6,0-15.988,4.356-28.448,9.4-42.875l.137-.392h-9.539L-7359.9-1354.4l10.259,2.205c2.326-13.138,14.574-23.445,27.854-23.445C-7306.25-1375.635-7292.858-1370.586-7277.355-1364.737Zm415.941-263.3c-4.3,10.948-5.653,12.7-18.625,29.509l-2.664,3.453c-1.141,1.546-2.358,3.114-3.6,4.714-6.341,8.166-13.524,17.42-13.524,28.271,0,13.5,11.047,19.643,21.308,19.643,13.312,0,22.974-9.661,22.974-22.972,0-3.662-.645-8-2.2-18.487l-.726-4.913c-3.227-24.111-2.955-26.153-1.441-37.481l.181-1.356c10.484,13.7,15.583,27.641,19.681,38.844,6.117,16.728,10.535,28.815,27.931,28.815,11.984,0,21.736-10.488,21.736-23.379,0-9.531-6.466-16.844-19.217-21.734-9.3-3.519-33.994-12.866-48.87-23.8a121.307,121.307,0,0,1,13.845-.77c9.454,0,18.833.983,30.007,2.457,1.6.213,3.19.451,4.782.688a95.061,95.061,0,0,0,13.6,1.382c14.2,0,23.377-8.524,23.377-21.713,0-12.237-10.146-22.972-21.713-22.972-10.5,0-20.415,8.721-30.914,17.954-9.774,8.617-21.39,17.886-33.414,21.308,4.565-11.579,5.348-12.811,20.9-32.986,1.135-1.538,2.346-3.1,3.579-4.687,6.36-8.191,13.543-17.447,13.543-28.32,0-13.48-11.045-19.62-21.306-19.62-13.311,0-22.972,9.661-22.972,22.972,0,3.641.643,7.978,2.2,18.452l.728,4.926c3.286,24.734,3.349,26.187,1.666,38.835-10.431-13.619-15.6-27.5-19.761-38.654-6.274-16.838-10.807-29-28.278-29-11.971,0-21.711,10.5-21.711,23.4,0,9.537,6.465,16.842,19.215,21.713,15.857,6.012,35.745,14.153,48.87,23.8a122.509,122.509,0,0,1-13.938.774c-9.482,0-18.815-.975-29.914-2.439-1.66-.22-3.318-.47-4.966-.719a91.343,91.343,0,0,0-13.416-1.373c-14.2,0-23.379,8.522-23.379,21.711,0,12.239,10.146,22.974,21.713,22.974,10.472,0,20.392-8.723,30.893-17.956,8.395-7.381,21.031-17.62,33.791-21.293l.049-.015Z" transform="translate(7576 2123.001)"/></svg>