<svg xmlns="http://www.w3.org/2000/svg" viewBox="0 0 59.408 218.522"><defs><style>.a{fill:#3f5d45;}</style></defs><path class="a" d="M-9119.39-1568.477a3,3,0,0,1-2.976-3.016,3,3,0,0,1,3.008-2.984,3,3,0,0,1,2.993,3,2.96,2.96,0,0,1-.872,2.147,2.952,2.952,0,0,1-2.077.854Zm-2.182-3a2.186,2.186,0,0,0,2.182,2.184,2.185,2.185,0,0,0,2.184-2.184,2.156,2.156,0,0,0-.631-1.551,2.16,2.16,0,0,0-1.553-.633v0A2.183,2.183,0,0,0-9121.571-1571.477Zm-.6-9.333c-.5,0-.624-.122-.743-.576-.36-1.3-1.03-1.97-2.833-2.45-.145-.048-.145-.264,0-.264a31.045,31.045,0,0,0,3.457,0c.768-.048,1.272-.385,1.465-1.9a85.012,85.012,0,0,0,.455-11.618h-4.9a20.771,20.771,0,0,1-3.816,4.514c-.119.1-.264-.073-.19-.193,1.01-1.537,2.064-5.138,2.615-8.3a16.369,16.369,0,0,0,.218-1.633c3.814.959,4.007,1.177,4.007,1.537,0,.264-.192.431-1.007.672a24.664,24.664,0,0,1-1.537,2.927l4.3,0c1.2-1.441,1.271-1.486,1.534-1.486.289,0,.409.046,1.729,1.126.7.576.769.672.769.936,0,.241-.1.337-.769.89.023,6.672-.145,10.537-.6,12.528a3.8,3.8,0,0,1-3.766,3.309A3.843,3.843,0,0,1-9122.172-1580.81Zm-16.084-2.6c0-.647.192-5.065.192-7.991,0-3.7.023-5.425-.1-7.273,1.06.289,1.777.5,2.259.672.12-1.2.216-2.11.287-3.36.023-.431.023-.768.023-1.438,3.24.647,3.72.791,3.72,1.225,0,.239-.19.5-.936.72-.769,1.174-1.464,2.158-2.28,3.239h2.6c.984-1.2,1.08-1.271,1.271-1.271.267,0,.36.023,1.3.839.984.84,1.058.961,1.058,1.177s-.051.264-.723.791l0,2.619c0,4.943.167,8.042.167,8.641,0,.745-.6,1.08-1.823,1.08-.888,0-1.058-.119-1.058-.936v-1.177h-3.19v2.3c0,.743-.6,1.078-1.682,1.078C-9138.063-1582.473-9138.256-1582.572-9138.256-1583.409Zm2.762-2.922h3.192v-5.232h-3.192Zm.5-10.8c-.049.119-.193.216-.5.385v4.7h3.19v-5.09Zm10.634,9.239c-.845,0-1.345-.528-1.418-1.775-.1-1.872-.335-3.1-1.393-3.984-.119-.1-.022-.239.12-.216,3.146.433,4.562,2.158,4.562,3.911a1.837,1.837,0,0,1-.461,1.464,1.832,1.832,0,0,1-1.355.6Zm-12.866-22.582c0-.649.168-5.065.168-10.322,0-3.624-.023-5.184-.119-6.48,2.592.528,3.383.839,3.6,1.1h3.911v-.073c0-2.615-.025-4.2-.1-5.521,3.745.314,4.055.457,4.055.865,0,.241-.238.408-.814.72v4.01l4.322,0c1.271-1.369,1.366-1.441,1.585-1.441s.479.145,1.631,1.032c.791.624.983.839.983,1.032s-.119.383-.72.791v4.319c0,5.113.145,8.762.145,9.386,0,.72-.673,1.2-2.064,1.2-1.081,0-1.223-.167-1.223-.888v-1.1h-12.263v1.1c0,.7-.575,1.151-2.064,1.151C-9137.054-1609.588-9137.222-1609.709-9137.222-1610.475Zm10.705-1.849h4.656v-6.888h-4.656Zm-7.608,0h4.464v-6.888h-4.464Zm7.608-7.368h4.656v-6h-4.656Zm-7.61-5.689v5.689h4.466l0-6h-3.934A1.161,1.161,0,0,1-9134.127-1625.38Zm39.891.745v-24h.769v24Zm-39.673-15.437c1.177.122,2.257.167,2.952.167h5.184v-4.392h-2.184a15.055,15.055,0,0,0-2.425.17l-.218-.812a24.735,24.735,0,0,0,2.641.17h2.186v-4.418h-1.728v.5c0,.936-.5,1.248-1.653,1.248-.89,0-1.1-.145-1.1-.888,0-.385.119-3.12.119-7.393,0-2.328-.023-3.218-.119-4.633,2.254.5,2.975.72,3.19.959h5.636c1.055-1.126,1.151-1.174,1.367-1.174.266,0,.385.048,1.585,1.007.936.771,1.009.842,1.009,1.08,0,.218-.1.314-.771.89v2.831c0,2.881.145,5.257.145,5.785,0,.7-.5,1.151-1.968,1.151-.84,0-1.032-.145-1.032-.888v-.479h-1.847v4.415h1.585c1.415-1.8,1.56-1.943,1.775-1.943.19,0,.408.119,1.463,1.1.865.791.911.936.911,1.1s-.1.216-.238.216h-5.5v4.406h2.355c1.515-1.97,1.585-2.019,1.775-2.019s.338.048,1.515,1.1c.91.817,1.007.936,1.007,1.151a.21.21,0,0,1-.062.179.211.211,0,0,1-.177.06h-14.425c-.553,0-1.585.05-2.714.17Zm10.969-9.595h1.851v-4.273h-1.851Zm-4.561,0h1.732v-4.273h-1.732Zm4.561-8.762,0,4.009h1.849v-4.489h-1.42C-9122.532-1658.763-9122.654-1658.6-9122.94-1658.428Zm-4.562-.119v4.129h1.729v-3.289c0-.5-.022-.865-.046-1.2h-1.25A1.455,1.455,0,0,1-9127.5-1658.548Zm-11.806,13.173a10.4,10.4,0,0,0,1.534-.073l1.393-.19v-5.929a18.7,18.7,0,0,0-2.376.17l-.216-.817a24.445,24.445,0,0,0,2.592.167v-3.888c.014-.736-.012-1.473-.071-2.209a18.6,18.6,0,0,0-2.5.17l-.216-.817a22.151,22.151,0,0,0,2.782.167h2.452c1.344-1.7,1.393-1.729,1.56-1.729s.267.048,1.248,1.08c.649.674.723.745.723.89a.249.249,0,0,1-.083.177.248.248,0,0,1-.184.062h-2.4c0,.218-.168.385-.554.553v5.544c1.1-1.537,1.152-1.583,1.319-1.583.192,0,.267.023,1.01.863.7.768.745.865.745.984,0,.144-.1.216-.267.216h-2.808v5.526c1.273-.218,2.521-.433,3.721-.7.145-.023.241.193.122.266a70.667,70.667,0,0,1-7.129,4.081c-.1.839-.314,1.032-.528,1.032C-9137.822-1641.365-9138.086-1641.583-9139.309-1645.375Zm45.072-3.259v-24h.769v24Zm-28.539-19.446a18.119,18.119,0,0,0-3.384-2.353c-2.736,2.3-6.553,3.289-12.289,3.1-.145,0-.168-.241-.023-.241,4.3-.335,7.7-1.631,10.008-3.959a22.223,22.223,0,0,0-3.1-.984l-.672.959a1.6,1.6,0,0,1-1.416.7c-1.058,0-2.041-.218-2.041-.649a1,1,0,0,1,.264-.527c1.08-1.392,1.993-2.64,2.784-3.865h-3.257a24.277,24.277,0,0,0-3,.17l-.216-.817a29.035,29.035,0,0,0,3.218.167h3.574c.573-.888,1.078-1.775,1.56-2.663a11.161,11.161,0,0,0,.479-1.032h-3.553v.1c0,1.007-.6,1.319-1.872,1.319-.769,0-.936-.144-.936-.839,0-.289.1-1.775.1-2.977,0-1.3,0-2.4-.071-3.36,2.521.6,3.17.794,3.313,1.1h1.58v-2.6h-3.264a33.3,33.3,0,0,0-3.673.167l-.218-.814a37.992,37.992,0,0,0,3.891.167h13.847c1.656-1.968,1.7-1.991,1.945-1.991s.313.023,1.464,1.055c.936.839,1.009.938,1.009,1.151a.234.234,0,0,1-.064.2.228.228,0,0,1-.2.062h-6.938c-.021.122-.19.241-.358.36v2.234h1.872c1.248-1.346,1.319-1.395,1.537-1.395.238,0,.383.048,1.534.938.842.647.89.72.89.959,0,.216-.048.289-.7.817v.5c0,1.174.119,2.663.119,2.9,0,.672-.575,1.1-1.968,1.1-.984,0-1.151-.19-1.151-.862v-.312h-7.438c2.4.647,2.81.936,2.81,1.3,0,.314-.266.5-1.151.771-.312.5-.649,1.055-1.01,1.631l7.657.009c1.656-2.019,1.775-2.138,2.016-2.138s.386.071,1.585,1.177c.911.839,1.03.984,1.03,1.151,0,.193-.1.289-.264.289h-6.84c1.534.312,1.8.528,1.8.768,0,.287-.167.408-1.055.672a18.455,18.455,0,0,1-1.489,2.3,11.308,11.308,0,0,1,3.746,1.438c.981.624,1.367,1.129,1.367,2.016a1.6,1.6,0,0,1-1.56,1.463A2.454,2.454,0,0,1-9122.775-1668.081Zm-8.5-4.844c1.369.048,2.617.147,3.769.266a9.292,9.292,0,0,0,1.058-1.775,12.427,12.427,0,0,0,.575-1.466h-3.383C-9129.9-1674.939-9130.574-1673.909-9131.271-1672.925Zm6.986-7.631h2.136v-3.7h-2.136Zm-4.8,0h2.113v-3.7h-2.113Zm-4.75-3.365,0,3.365h2.112v-3.7h-1.7A3.215,3.215,0,0,1-9133.836-1683.921Zm4.75-3.067v2.255h2.113v-2.592h-1.753C-9128.751-1687.224-9128.918-1687.11-9129.086-1686.988Zm37.368,7.794c0-.383.119-2.952.119-6.624a34.77,34.77,0,0,0-.1-3.72c2.041.6,2.736.839,2.978,1.08h.359v-7.507a39.81,39.81,0,0,0-.167-4.679c3.383.239,3.743.553,3.743.911,0,.241-.167.408-.842.72v4.466h1.3c1.39-1.849,1.56-1.991,1.775-1.991.238,0,.479.167,1.415,1.1.769.768.888.913.888,1.1,0,.167-.119.264-.312.264h-5.062v5.617h.888c1.08-1.417,1.2-1.489,1.417-1.489.287,0,.528.145,1.416.913.936.814,1.08.936,1.08,1.174s-.119.36-.743.89v2.425c0,1.823.119,3.936.119,4.872,0,.72-.84,1.129-1.945,1.129-.839,0-.958-.119-.958-.913v-.814h-4.659v.863c0,.745-.408,1.151-1.775,1.151C-9091.645-1678.258-9091.718-1678.377-9091.718-1679.194Zm2.711-8.514v6.962l4.656,0v-7.223h-4.367A1.029,1.029,0,0,1-9089.007-1687.708Zm-13.812,8.98a1.155,1.155,0,0,1-.391-.89c0-.36.168-.649.792-1.248a3.511,3.511,0,0,0,1.1-2.714c0-.145.218-.119.289,0a5.493,5.493,0,0,1,.84,3.145,1.87,1.87,0,0,1-1.7,1.991,1.153,1.153,0,0,1-.157.011A1.154,1.154,0,0,1-9102.819-1678.728Zm3.156-1.3c0-.312.048-.624.1-1.129a3.421,3.421,0,0,0-.479-2.567c-.1-.119.071-.167.216-.119a3.377,3.377,0,0,1,2.516,3.142c0,1.1-.553,1.681-1.463,1.681A1,1,0,0,1-9099.663-1680.026Zm2.881-.768a4.314,4.314,0,0,0-1.562-3.358c-.119-.1.048-.17.192-.145,2.691.573,3.579,1.918,3.579,3.285v0a1.249,1.249,0,0,1-.3.97,1.245,1.245,0,0,1-.922.422C-9096.445-1679.618-9096.782-1680.116-9096.782-1680.795Zm2.566-.743a3.437,3.437,0,0,0-2.158-2.977c-.119-.071-.049-.193.1-.193,3.234.071,4.34,1.585,4.34,2.952,0,.745-.362,1.466-1.25,1.466C-9093.663-1680.29-9094.119-1680.6-9094.216-1681.538Zm-8.976-4.819a15.345,15.345,0,0,0,1.56-.023c1.1-.048,2.064-.121,2.978-.17v-2h-1.058a18.235,18.235,0,0,0-2.447.167l-.238-.839a21.48,21.48,0,0,0,2.688.19h1.057v-2.782h-1.7v.6c0,.7-.434.89-1.273.89-.791,0-.888-.1-.888-.7,0-.477.119-2.663.119-5.927,0-1.993,0-2.714-.07-3.5a6.965,6.965,0,0,1,2.5,1.032h5.126c.814-1.1.888-1.154,1.056-1.154.145,0,.266.025,1.177.771.745.624.864.743.864.959,0,.167-.048.239-.646.745v2.062c0,1.823.145,3.6.145,4.2,0,.794-.408,1.08-1.682,1.08-.527,0-.624-.167-.624-.768v-.289h-1.8v2.787h.791c1.225-1.489,1.347-1.608,1.514-1.608.216,0,.289.023,1.2.888.646.624.745.768.745.936s-.073.266-.241.266h-4.012v1.8c1.418-.142,2.736-.312,4.2-.5a.117.117,0,0,1,.14.076.117.117,0,0,1-.066.142,68.711,68.711,0,0,1-9.338,3.335c-.145.5-.312.649-.525.649C-9102.3-1683.045-9102.52-1683.43-9103.191-1686.357Zm8.352-9.7c-.479.72-.981,1.466-1.728,2.594v1.177h2.017v-3.961C-9094.624-1696.2-9094.718-1696.133-9094.84-1696.062Zm-5.519,3.771h1.92v-2.064a1.014,1.014,0,0,1-.959.862c-.434,0-.649-.358-.649-.791,0-.312.071-.7.119-1.225a2.127,2.127,0,0,0-.431-1.537Zm3.794-6.264v4.344c.19-.814.357-1.824.454-2.4.073-.408.1-.7.146-1.129a8.616,8.616,0,0,1,1.415.768l0-1.97h-1.656C-9096.229-1698.794-9096.326-1698.723-9096.564-1698.555Zm-3.794-.122v1.3a2.689,2.689,0,0,1,1.92,2.064v-2.569c0-.312,0-.7-.025-1.057h-1.512A2.448,2.448,0,0,1-9100.358-1698.677Zm-22.342,2.08a2.053,2.053,0,0,0-1.417-1.489v.5c0,.576-.479.89-2.138.89-.576,0-.7-.17-.7-.771,0-.239.071-2.879.071-5.016,0-.647,0-1.151-.023-1.583h-1.629a.845.845,0,0,1-.266.239v1.321c0,2.158.073,4.608.073,4.92,0,.576-.481.888-1.968.888-.745,0-.865-.167-.865-.768,0-.241.071-2.833.071-5.039,0-.649,0-1.1-.022-1.562H-9133a3.706,3.706,0,0,1-.406.36v.913c0,3.168.023,5.328.023,5.711,0,.647-.457.984-1.9.984-.816,0-.938-.193-.938-.743,0-.53.119-3.193.119-5.45,0-1.1-.022-1.9-.1-3.048,2.28.433,3,.576,3.216.791h2.675c.168-.766.337-1.438.479-2.207h-5.927a23.306,23.306,0,0,0-2.856.167l-.24-.814c1.25.119,2.328.167,3.1.167l15,.014c1.486-1.7,1.631-1.849,1.849-1.849.19,0,.383.119,1.367,1.007.864.794.961.913.961,1.1,0,.119-.073.216-.264.216h-9.171c0,.266-.119.36-.743.479-.936.745-1.488,1.177-2.231,1.729h6.386c1.2-1.271,1.271-1.319,1.512-1.319.264,0,.383.023,1.8,1.007.479.337.6.456.6.672,0,.193-.048.289-.647.84v1.321c0,2.161.071,3.191.071,3.5a2.281,2.281,0,0,1-1.369,2.23,4.471,4.471,0,0,1-1.463.266C-9122.484-1696.021-9122.6-1696.188-9122.7-1696.6Zm-1.488-7.216v1.349c0,1.486.023,3.168.048,4.129a11.892,11.892,0,0,0,1.512-.073.4.4,0,0,0,.36-.408v-5.237h-1.658C-9123.947-1703.953-9124.046-1703.909-9124.188-1703.813Zm32.5-4.25c0-.672.218-3.67.218-11.4v-2.326h-1.133c.337.385.385.5.385.672,0,.218-.121.289-.479.289h-3.771v4.776h.145c1.129-1.392,1.2-1.463,1.418-1.463.238,0,.383.071,1.463,1.032.743.647.888.839.888,1.055s-.048.289-.72.84v1.248c0,1.826.121,3.337.121,4.009,0,.72-.89,1.225-1.729,1.225-.888,0-1.1-.216-1.1-1.009v-.551h-3.558v1.1c0,.745-.624,1.154-1.752,1.154-.865,0-1.032-.122-1.032-.938,0-.383.145-2.64.145-5.062,0-1.537,0-2.5-.071-3.675a8.539,8.539,0,0,1,2.954,1.037h.119v-4.776h-1.371a15.032,15.032,0,0,0-2.425.167l-.216-.817a24.222,24.222,0,0,0,2.641.17h1.369v-1.681c0-1.08,0-1.752-.025-2.328-1.393.122-2.76.193-4.129.193-.143,0-.19-.241-.046-.266a29.163,29.163,0,0,0,7.438-2.952,4.018,4.018,0,0,0,.746-.528c2.566,1.849,2.878,2.232,2.878,2.642,0,.383-.335.408-1.56.312-.7.1-1.393.19-2.064.264a.224.224,0,0,1,.025.122c0,.239-.145.312-.553.525v3.7h.771c1.273-1.9,1.367-1.92,1.537-1.92.19,0,.287.073,1.129.961h1.56a63.876,63.876,0,0,0-.193-6.891c3,.408,3.746.7,3.746,1.009,0,.36-.218.528-.794.865v5.016h2.666a58.154,58.154,0,0,0-.19-6.865c2.949.36,3.959.647,3.959.961s-.216.553-.865.817l0,5.083c1.009-1.872,1.151-2.016,1.3-2.016s.238.048.888.911c.72.984.769,1.057.769,1.271s-.12.314-.406.314h-2.551v2.161c0,7.776.119,10.008.119,11.184,0,.7-.479,1.151-1.872,1.151-.936,0-1.151-.145-1.151-.936v-1.415h-2.665v1.346c0,.814-.743,1.1-1.872,1.1C-9091.551-1707.2-9091.69-1707.437-9091.69-1708.063Zm2.973-2.06h2.663v-6.17h-2.663Zm-10.824-5.184v5.159h3.553v-5.425h-3.241A1.9,1.9,0,0,1-9099.542-1715.307Zm10.824-1.463h2.663v-5.019h-2.663Zm-40.8,8.228c0-.456.145-2.736.145-5.5l-6.069.007a3.111,3.111,0,0,1,.071.7c0,1.344-.624,2.714-2.017,2.714a1.375,1.375,0,0,1-1.1-.355,1.366,1.366,0,0,1-.438-1.067,1.726,1.726,0,0,1,.769-1.44,2.866,2.866,0,0,0,1.558-2.448c0-.147.145-.147.24-.025a4.338,4.338,0,0,1,.792,1.44h6.19a13.732,13.732,0,0,0-.071-1.993h-3.718a24.89,24.89,0,0,0-2.615.17l-.24-.817c1.247.119,2.112.167,2.855.167h10.248c1.319-1.679,1.466-1.727,1.682-1.727.19,0,.289.023,1.319.911.912.768.961.913.961,1.08,0,.145-.1.216-.264.216h-6.7c0,.17-.145.289-.479.434v1.56h5.376c1.226-1.369,1.393-1.489,1.583-1.489.218,0,.479.1,1.849,1.248.913.768,1.1,1.08,1.1,1.489,0,.287-.287.479-.937.528a2.59,2.59,0,0,0-1.151.312c-.456.241-.983.553-2.186,1.177-.119.071-.216,0-.168-.145a24.118,24.118,0,0,0,.624-2.64h-6.092v.216c0,2.45.119,4.7.119,5.161,0,.576-.454.888-2.017.888C-9129.258-1707.774-9129.521-1708.013-9129.521-1708.542Zm3.629-1.245a18.439,18.439,0,0,0,2.136.119h1.514c.981-1.2,1.078-1.248,1.248-1.248.1,0,.286.048,1.128.768.551.454.6.576.6.72,0,.167-.071.239-.215.239h-4.273c-.479,0-1.2.025-1.945.1Zm-10.464,0a18.115,18.115,0,0,0,2.087.119h1.537c.936-1.151,1.007-1.2,1.151-1.2.119,0,.287.048.936.647.553.5.624.672.624.817a.192.192,0,0,1-.053.161.19.19,0,0,1-.163.055h-4.032c-.434,0-1.128.023-1.9.1Zm10.489-2.376a13.822,13.822,0,0,0,1.823.119h.287c.938-1.151,1.032-1.177,1.153-1.177s.238.048.888.672c.551.553.6.624.6.768a.193.193,0,0,1-.053.163.194.194,0,0,1-.163.053h-2.711a15.907,15.907,0,0,0-1.633.1Zm-9.288,0a17.178,17.178,0,0,0,2.063.119h.314c.931-1.154,1.027-1.177,1.149-1.177s.215.023.936.672c.553.479.6.624.6.768a.2.2,0,0,1-.053.163.2.2,0,0,1-.163.053h-2.782c-.408,0-1.129.025-1.872.1Zm5.545-13.46c0-.672.119-4.081.119-9.074v-1.42a30.61,30.61,0,0,1-9.82,6.312c-.145.05-.286-.216-.167-.287,3.5-2.113,8.785-8.065,11.136-12.721q.39-.74.7-1.512h-7.469c-.839,0-1.777.046-3.146.167l-.238-.817c1.585.119,2.546.167,3.385.167h12.91c1.919-2.232,2.016-2.3,2.257-2.3.264,0,.357.046,1.727,1.3.891.794,1.081,1.057,1.081,1.225s-.119.264-.312.264l-7.773-.007c1.847.408,2.064.72,2.064.961,0,.312-.266.5-1.012.6a22.8,22.8,0,0,1-2.376,3.5c.626.167.7.335.7.5,0,.241-.074.335-.576.6v3.466c0,4.415.216,8.113.216,8.93,0,.7-.791,1.055-2.184,1.055C-9129.3-1724.713-9129.61-1724.906-9129.61-1725.624Zm9.19-6.7a12.612,12.612,0,0,0-4.968-6.553.131.131,0,0,1-.051-.161.133.133,0,0,1,.151-.08c5.058.553,8.563,3.649,8.563,6.338h0c0,1.463-.839,2.184-1.849,2.184C-9119.436-1730.6-9119.986-1731.074-9120.42-1732.324Zm26.255-6.716c0-1.271.07-1.681,5.688-9.026h-2.785a16.48,16.48,0,0,0-2.351.17l-.241-.817a19.563,19.563,0,0,0,2.592.17l2.736,0c1.37-1.514,1.464-1.562,1.7-1.562.262,0,.406.073,1.367.89,1.078.936,1.2,1.1,1.2,1.319,0,.312-.022.408-1.775,1.3-4.346,4.994-5.09,6.023-5.09,6.553s.1.743,3.6.743c2.544,0,3.5-.287,4.056-.84a10.024,10.024,0,0,0,1.9-3.672c.048-.145.19-.1.19.048-.119,1.968-.145,2.64-.145,2.952a1.905,1.905,0,0,0,.386,1.055,2.189,2.189,0,0,1,.383,1.273c0,1.126-.721,1.92-7.226,1.92C-9093.493-1736.568-9094.165-1737.5-9094.165-1739.04Zm-8.354-3.459c0-.672.1-4.464.1-7.92,0-2.762,0-4.1-.1-5.5,2.28.576,2.978.913,3.193,1.2h1.029c.962-1.248,1.058-1.319,1.273-1.319.241,0,.312,0,1.367.862.913.745.984.865.984,1.08,0,.241-.049.314-.7.865l.007,2.523c0,3.938.145,5.688.145,6.312,0,.745-.479,1.177-1.993,1.177-.624,0-.814-.239-.814-.936v-.528h-1.825v2.039c0,.72-.649,1.032-1.945,1.032C-9102.3-1741.612-9102.52-1741.731-9102.52-1742.5Zm2.661-11.4v8.735h1.828v-9.072h-1.3A2,2,0,0,1-9099.858-1753.9Zm4.709,5.737a31.4,31.4,0,0,0,2.64-8.235,16.118,16.118,0,0,0,.265-1.874c3.842.89,4.058,1.129,4.058,1.418,0,.383-.168.5-1.081.791a25.9,25.9,0,0,1-1.849,3.312l5.93,0c1.775-2.328,1.871-2.4,2.112-2.4s.383.046,1.7,1.39c.816.817.938.961.938,1.179s-.1.312-.408.312h-10.581a25.2,25.2,0,0,1-3.479,4.248.13.13,0,0,1-.094.037C-9095.1-1747.981-9095.2-1748.072-9095.149-1748.162Zm-44.4-5.851c1.608-1.2,3.792-4.682,4.9-8.666.143-.551.241-.936.358-1.512,3.525,1.193,3.692,1.317,3.692,1.651,0,.312-.1.408-.91.647a11.152,11.152,0,0,1-1.3,2.379,3.9,3.9,0,0,0,2.112,1.679,8.5,8.5,0,0,0,1.464.408v-5.016c0-.888,0-1.631-.071-2.473h-6.452a21.451,21.451,0,0,0-2.741.167l-.238-.814c1.247.119,2.206.167,2.975.167h14.334c1.656-2.113,1.7-2.138,1.942-2.138s.314,0,1.634,1.273c.864.817.936.865.936,1.1a.23.23,0,0,1-.076.179.225.225,0,0,1-.187.06h-8.448c-.022.167-.145.287-.527.479v3.409h2.9c1.585-1.993,1.633-2.016,1.849-2.016.264,0,.312.023,1.585,1.225.814.766.862.814.862,1.03a.215.215,0,0,1-.062.179.206.206,0,0,1-.177.062h-6.957v3.415c.814.023,1.775.046,2.881.046a43.368,43.368,0,0,0,6.743-.383c.145-.023.168.19.049.264a3.6,3.6,0,0,0-1.872,2.688.707.707,0,0,1-.672.624,32.865,32.865,0,0,1-3.771.071c-3.7,0-6.022-.553-7.583-1.56a5.8,5.8,0,0,1-2.687-3.743,16.818,16.818,0,0,1-6.336,5.333.158.158,0,0,1-.051.009A.127.127,0,0,1-9139.55-1754.014Zm42.235-13.205c0-.89.048-2.688.048-3.647a17.553,17.553,0,0,0-.145-2.353c3.216.287,3.673.553,3.673.862,0,.218-.145.36-.721.672l0,3.1c0,.839.241,1.009,2.425,1.009,2.688,0,3.386-.264,4.083-.961a8.691,8.691,0,0,0,1.8-3.36c.049-.145.216-.119.216.025-.1,1.56-.167,2.47-.167,2.975a1.461,1.461,0,0,0,.456,1.128,1.582,1.582,0,0,1,.5,1.08c0,1.057-.743,1.872-7.032,1.872C-9096.858-1764.82-9097.314-1765.418-9097.314-1767.219Zm-4.909.954a1.593,1.593,0,0,1-.488-1.147,1.944,1.944,0,0,1,1.009-1.7,3.675,3.675,0,0,0,2.04-3.434c0-.147.192-.147.264-.028a9.328,9.328,0,0,1,.888,3.984,2.6,2.6,0,0,1-.684,1.922,2.6,2.6,0,0,1-1.86.837l-.075,0A1.585,1.585,0,0,1-9102.224-1766.265Zm-32.408-.667c0-.434.073-2.353.073-5.209,0-1.2,0-2.686-.073-3.672,2.643.528,3.289.794,3.459,1.009h6.358c1.128-1.3,1.2-1.344,1.466-1.344.238,0,.36.023,1.582.936,1.032.768,1.081.865,1.081,1.08,0,.19-.049.239-.624.72v2.161c0,2.087.119,3.1.119,3.528,0,.7-.718,1.08-2.136,1.08-.959,0-1.128-.147-1.128-.842v-.454h-7.152v.766c0,.7-.6,1.009-1.966,1.009C-9134.414-1766.164-9134.632-1766.331-9134.632-1766.932Zm3.025-1.491h7.154v-2.762h-7.154Zm0-5.636v2.4h7.154v-2.665h-6.769A2.342,2.342,0,0,1-9131.606-1774.059Zm49.031,6.744c-.816,0-1.44-.553-1.537-1.633a5.022,5.022,0,0,0-1.7-3.815.119.119,0,0,1-.058-.158.118.118,0,0,1,.156-.06c3.044.312,4.989,1.729,4.989,3.7h0a1.785,1.785,0,0,1-.475,1.406,1.784,1.784,0,0,1-1.3.563Zm-8.881-2.239a1.262,1.262,0,0,1-.409-.952,3.777,3.777,0,0,0-1.486-2.81c-.121-.073-.073-.216.071-.216,3.267-.025,4.443,1.3,4.443,2.615h0a1.629,1.629,0,0,1-.462,1.186,1.63,1.63,0,0,1-1.172.5,1.269,1.269,0,0,1-.138.007A1.253,1.253,0,0,1-9091.456-1769.554Zm-7.118-4.7c0-.454.049-1.654.119-4.367v-.457a14.689,14.689,0,0,1-4.849,3.913c-.119.071-.287-.119-.167-.216,1.655-1.3,3.575-4.968,4.128-7.416h-.912a18.217,18.217,0,0,0-2.448.167l-.238-.842a21.047,21.047,0,0,0,2.687.193h1.8a36.4,36.4,0,0,0-.1-3.72c3.408.264,3.578.406,3.578.814,0,.241-.121.456-.888.745v2.158h.216c1.126-1.656,1.2-1.7,1.415-1.7s.264.025,1.08.913c.7.743.743.839.743,1.007s-.07.266-.24.266h-3.219v1.484c2.3.071,3.435,1.2,3.435,2.448a1.281,1.281,0,0,1-.354,1.007,1.268,1.268,0,0,1-.993.385c-.646,0-1.032-.335-1.1-1.151a3.251,3.251,0,0,0-.984-2.328c.023,5.138.1,6.122.1,6.528,0,.649-.718.938-1.75.938C-9098.4-1773.483-9098.574-1773.676-9098.574-1774.254Zm6.4-.094c-.023-.36.1-2.592.1-6.48,0-3.743-.022-4.489-.119-5.521,2.425.553,3.145.743,3.313,1.007h3.378c1.056-1.2,1.127-1.248,1.345-1.248.264,0,.357.048,1.367.842,1.032.814,1.1.936,1.1,1.149s-.073.289-.674.842v2.4c0,4.608.1,6.266.1,6.5,0,.672-.745.984-2.042.984-.743,0-.936-.193-.936-.817v-.7h-4.1v.658c0,.672-.6,1.03-1.85,1.03C-9091.979-1773.7-9092.149-1773.917-9092.172-1774.348Zm2.833-1.512h4.1v-2.762h-4.1Zm0-3.239h4.1v-2.642h-4.1Zm0-5.594v2.473h4.1v-2.64h-3.741A1.281,1.281,0,0,1-9089.339-1784.693Z" transform="translate(9139.6 1786.998)"/></svg>