<svg xmlns="http://www.w3.org/2000/svg" viewBox="0 0 88.936 307.152"><defs><style>.a{fill:#3f5d45;}</style></defs><path class="a" d="M-8718.075-496.706a2.933,2.933,0,0,1-.634-3.2,2.934,2.934,0,0,1,2.725-1.8,2.96,2.96,0,0,1,2.917,2.917,2.934,2.934,0,0,1-1.8,2.724,2.932,2.932,0,0,1-1.13.226A2.926,2.926,0,0,1-8718.075-496.706Zm1.871-7.895c-.252,0-.361-.18-.361-.432,0-3.958.289-5.074,1.946-7.487,1.983-2.911,2.521-4.458,2.521-7.338,0-4.177-1.909-5.9-4.393-5.9-2.051,0-3.743,1.368-3.743,2.663a1.082,1.082,0,0,0,.539,1.008,2.765,2.765,0,0,1,1.226,2.124,2.566,2.566,0,0,1-.759,1.968,2.565,2.565,0,0,1-1.979.732,2.627,2.627,0,0,1-1.957-.793,2.637,2.637,0,0,1-.743-1.979c0-3.454,4.141-6.7,8.785-6.7,5.325,0,8.457,2.81,8.457,6.8,0,3.06-1.115,4.969-5.614,8.53-2.735,2.161-3.274,2.987-3.274,4.969a4.38,4.38,0,0,0,.18,1.151.823.823,0,0,1-.811.684Zm1.27-33.577c0-.574.18-4.427.18-9.935a53.551,53.551,0,0,0-.145-5.584c3.06.9,4.1,1.26,4.462,1.62h.539v-11.27a59.1,59.1,0,0,0-.252-7.02c5.076.359,5.615.828,5.615,1.368,0,.359-.25.612-1.258,1.081v6.693l1.933,0c2.089-2.77,2.341-2.985,2.665-2.985.359,0,.722.252,2.124,1.655,1.153,1.151,1.333,1.368,1.333,1.655,0,.252-.18.4-.47.4h-7.592v8.423h1.333c1.619-2.124,1.8-2.231,2.123-2.231.432,0,.791.217,2.124,1.368,1.4,1.223,1.62,1.4,1.62,1.764s-.18.539-1.116,1.33v3.636c0,2.735.18,5.9.18,7.307,0,1.081-1.26,1.692-2.917,1.692-1.258,0-1.437-.18-1.437-1.368V-539.8h-6.98v1.3c0,1.113-.614,1.727-2.665,1.727C-8714.836-536.777-8714.935-536.957-8714.935-538.178Zm4.061-12.784v10.439l6.979,0v-10.834h-6.547A1.485,1.485,0,0,1-8710.874-550.962ZM-8731.6-537.5a1.743,1.743,0,0,1-.583-1.337c0-.539.252-.971,1.188-1.872a5.239,5.239,0,0,0,1.654-4.068c0-.215.322-.18.43,0a8.224,8.224,0,0,1,1.261,4.717,2.8,2.8,0,0,1-2.554,2.987,1.743,1.743,0,0,1-.233.016A1.752,1.752,0,0,1-8731.6-537.5Zm4.734-1.948c0-.469.072-.936.145-1.692a5.117,5.117,0,0,0-.719-3.851c-.145-.18.107-.252.322-.18a5.065,5.065,0,0,1,3.787,4.714h0c0,1.657-.828,2.521-2.2,2.521A1.5,1.5,0,0,1-8726.862-539.447Zm4.322-1.153a6.48,6.48,0,0,0-2.341-5.039c-.18-.145.072-.252.287-.217,4.037.866,5.37,2.88,5.37,4.931h0a1.864,1.864,0,0,1-.454,1.453,1.87,1.87,0,0,1-1.383.636C-8722.036-538.835-8722.54-539.591-8722.54-540.6Zm3.849-1.113a5.154,5.154,0,0,0-3.237-4.462c-.182-.11-.072-.289.143-.289,4.865.107,6.522,2.374,6.522,4.425l-.007,0c0,1.118-.539,2.2-1.871,2.2C-8717.863-539.841-8718.542-540.308-8718.691-541.713Zm-13.45-7.237c.777.026,1.56.015,2.338-.035,1.657-.072,3.1-.182,4.465-.252v-2.99h-1.587a27.764,27.764,0,0,0-3.671.252l-.362-1.26a31.836,31.836,0,0,0,4.033.289h1.582v-4.177h-2.558v.9c0,1.043-.646,1.333-1.906,1.333-1.188,0-1.333-.145-1.333-1.045,0-.719.18-4,.18-8.892,0-2.985,0-4.066-.107-5.254,2.521.756,3.419,1.223,3.744,1.547l7.706,0c1.225-1.657,1.332-1.727,1.582-1.727.217,0,.4.035,1.765,1.151,1.115.936,1.3,1.116,1.3,1.44,0,.252-.072.357-.974,1.113v3.1c0,2.735.217,5.4.217,6.3,0,1.188-.613,1.62-2.521,1.62-.793,0-.936-.252-.936-1.151v-.434h-2.7v4.177h1.184c1.835-2.231,2.017-2.413,2.269-2.413.322,0,.432.037,1.8,1.333.971.936,1.115,1.151,1.115,1.4s-.107.4-.359.4h-6.012v2.7c2.123-.215,4.1-.467,6.3-.756a.17.17,0,0,1,.2.112.172.172,0,0,1-.092.213,102.814,102.814,0,0,1-14,5c-.217.756-.469.971-.793.971C-8730.81-543.984-8731.134-544.56-8732.142-548.95Zm12.517-14.542c-.719,1.081-1.476,2.2-2.591,3.888v1.764l3.022,0v-5.937C-8719.3-563.707-8719.445-563.6-8719.625-563.492Zm-8.276,5.65h2.883v-3.1a1.521,1.521,0,0,1-1.44,1.3c-.648,0-.971-.539-.971-1.186,0-.469.107-1.045.18-1.837a3.2,3.2,0,0,0-.648-2.3Zm5.69-9.394v6.514c.289-1.223.541-2.735.684-3.6.109-.612.145-1.043.217-1.692a13.005,13.005,0,0,1,2.124,1.153l-.007-2.952h-2.477C-8721.707-567.595-8721.85-567.488-8722.211-567.235Zm-5.687-.173,0,1.937a4.027,4.027,0,0,1,2.88,3.1v-3.851c0-.469,0-1.045-.035-1.585h-2.266A3.729,3.729,0,0,1-8727.9-567.409Zm12.987-14.086c0-1.008.324-5.508.324-17.1v-3.491h-1.685c.5.574.576.754.576,1.006,0,.324-.18.434-.722.434h-5.649v7.163h.217c1.689-2.087,1.8-2.2,2.124-2.2.359,0,.574.11,2.2,1.55,1.115.971,1.332,1.26,1.332,1.582s-.072.434-1.08,1.26v1.872c0,2.735.182,5,.182,6.012,0,1.081-1.333,1.837-2.593,1.837-1.33,0-1.654-.324-1.654-1.512v-.828h-5.333v1.657c0,1.113-.937,1.727-2.628,1.727-1.3,0-1.547-.18-1.547-1.4,0-.574.215-3.958.215-7.6,0-2.3,0-3.743-.107-5.508,2.77.684,4,1.151,4.425,1.547h.182v-7.163h-2.051a22.69,22.69,0,0,0-3.637.252l-.324-1.225a36.26,36.26,0,0,0,3.961.252h2.051v-2.52c0-1.617,0-2.626-.037-3.489-2.087.18-4.138.287-6.189.287-.217,0-.289-.359-.072-.4a44.112,44.112,0,0,0,11.158-4.427,6.227,6.227,0,0,0,1.115-.793c3.854,2.773,4.32,3.349,4.32,3.96,0,.574-.5.611-2.339.467-1.043.145-2.089.289-3.1.4a.318.318,0,0,1,.038.18c0,.359-.218.467-.829.791v5.543h1.153c1.906-2.843,2.051-2.878,2.3-2.878.287,0,.432.105,1.692,1.438h2.34a94.7,94.7,0,0,0-.289-10.33c4.5.611,5.615,1.043,5.615,1.512,0,.539-.324.791-1.187,1.3v7.522h4a86.445,86.445,0,0,0-.287-10.294c4.427.539,5.939.971,5.939,1.44s-.324.826-1.3,1.223l.007,7.638c1.51-2.808,1.727-3.022,1.941-3.022s.361.072,1.333,1.368c1.08,1.477,1.152,1.585,1.152,1.907s-.18.469-.611.469h-3.815v3.239c0,11.662.18,15.011.18,16.773,0,1.043-.722,1.729-2.808,1.729-1.4,0-1.729-.217-1.729-1.4v-2.124h-4v2.016c0,1.223-1.115,1.655-2.808,1.655C-8714.693-580.2-8714.911-580.555-8714.911-581.495Zm4.469-3.095h4v-9.251h-4Zm-16.231-7.772v7.739l5.326,0v-8.133h-4.859A2.99,2.99,0,0,1-8726.674-592.361Zm16.231-2.2h4v-7.522h-4Zm45.722-7.958v-36h1.153v36Zm-53.059-20.519c3.563-1.475,6.947-4.822,9.144-9.284a44.81,44.81,0,0,1-1.19-12.635,19.238,19.238,0,0,1-2.7,3.384c-.143.143-.432-.072-.322-.252,1.224-2.233,2.269-6.409,2.915-12.78.072-.864.107-1.4.145-2.376,4.752,1.26,5.328,1.477,5.328,2.016,0,.432-.145.684-1.187,1.008a33.127,33.127,0,0,1-2.161,5.473h4.606c1.944-2.7,2.052-2.77,2.339-2.77.252,0,.435.035,1.8,1.438,1.078,1.081,1.26,1.3,1.26,1.657a.368.368,0,0,1-.111.289.369.369,0,0,1-.289.11l-6.008,0c2.95.828,3.706,1.333,3.706,1.764,0,.324-.215.541-1.258.9a38.5,38.5,0,0,1-2.952,12.166,24.327,24.327,0,0,0,6.91,5.471c.18.107.145.324-.072.4a5.183,5.183,0,0,0-2.843,2.88c-.217.432-.434.719-.684.719a1.763,1.763,0,0,1-1.115-.5,20.927,20.927,0,0,1-4.572-5.219,19.709,19.709,0,0,1-10.509,6.505l-.033,0C-8717.835-622.674-8717.987-622.97-8717.779-623.039Zm9.566-24.727c-.287.541-.574,1.045-.863,1.55a30.374,30.374,0,0,0,1.909,9.718,54.107,54.107,0,0,0,1.367-11.27Zm-20.95,23.324c0-.936.145-3.384.217-8.747l.111-9.79a23.965,23.965,0,0,1-3.815,4.427c-.18.145-.432-.107-.322-.287,1.834-2.845,3.886-8.532,5.436-15.515.18-.828.359-1.692.467-2.593,5.221,1.837,5.473,2.268,5.473,2.735,0,.432-.289.756-1.657,1.153a37.788,37.788,0,0,1-2.917,6.01c1.909.793,2.3,1.118,2.3,1.512,0,.324-.218.576-1.118.938v8.063c0,8.638.072,10.871.072,11.77,0,1.008-.9,1.55-2.663,1.55C-8728.946-623.216-8729.163-623.506-8729.163-624.441Zm6.16-3.239c0-.609.252-3.886.252-8.35,0-2.77,0-3.454-.107-5.363a18.893,18.893,0,0,1,3.35,1.045V-647.4h-.542c-.648,0-1.8.07-3.491.252l-.359-1.225a29.052,29.052,0,0,0,3.854.252h.539v-2.016a62.515,62.515,0,0,0-.18-6.3c4.9.576,5.4.9,5.4,1.4,0,.359-.18.649-1.333,1.188v5.723h.18c1.478-2.339,1.55-2.374,1.8-2.374.287,0,.4.035,1.582,1.512.757.936.829,1.078.829,1.258,0,.217-.145.324-.4.324h-4v7.165c1.3-1.549,1.44-1.622,1.694-1.622.322,0,.43.037,1.942,1.4.9.828.971,1.008.971,1.26,0,.287-.143.4-.971.973v2.376c0,3.2.145,5.435.145,6.084,0,1.006-.974,1.438-2.772,1.438-.937,0-1.188-.252-1.188-1.188v-.864l-3.342.009v2.52c0,.936-.72,1.44-2.374,1.44C-8722.858-626.418-8723-626.635-8723-627.681Zm3.852-11.3v7.884l3.349,0v-8.35h-2.917A1.674,1.674,0,0,1-8719.151-638.981Zm54.431.462v-36h1.153v36Zm-55.017-28.979c-.5-1.69-1.187-2.843-4-3.636-.214-.07-.214-.4,0-.4a30.811,30.811,0,0,0,4.717-.072c1.188-.145,1.585-.721,1.585-1.692v-9.646a49.363,49.363,0,0,0-.254-7.307c1.836.18,3.2.359,4.175.5,1.4-1.979,2.845-4.175,4.178-6.406h-14.637c-1.263,0-2.558.072-4.609.252l-.359-1.225c2.376.18,3.709.252,4.969.252l14.433.007c2.269-2.3,2.448-2.411,2.808-2.411.432,0,.648.035,3.528,2.52,1.513,1.3,1.692,1.582,1.692,1.942,0,.576-.252.721-2.521,1.225-2.593,1.333-5.111,2.7-7.956,4.175.9.217,1.008.432,1.008.721,0,.4-.145.574-1.582,1.33v4.07c0,5.291.252,10.619.252,11.879a4.07,4.07,0,0,1-2.2,3.958,8.181,8.181,0,0,1-4,.9c-.037,0-.073.005-.109.005A1.135,1.135,0,0,1-8719.737-667.5Zm46.842-20.591c1.15.072,1.619.107,2.88.145,3.06.072,5.8.145,8.5.145a54.76,54.76,0,0,0,4.141-6.731,17.157,17.157,0,0,0,.9-1.944c5.221,1.872,5.473,2.051,5.473,2.628,0,.469-.469.647-1.874.791-2.521,1.944-4.425,3.384-7.09,5.256,2.593,0,5.184-.035,8.026-.072a6.323,6.323,0,0,0-2.591-2.481.194.194,0,0,1-.093-.226.194.194,0,0,1,.2-.136c6.227.033,8.532,2.7,8.532,5.109a2.654,2.654,0,0,1-.776,1.924,2.659,2.659,0,0,1-1.924.776,2.1,2.1,0,0,1-2.124-1.834,9.844,9.844,0,0,0-.611-1.909c-6.047,1.116-9.973,1.764-18.54,3.132-.359.684-.5.828-.828.828C-8671.164-682.688-8671.379-682.978-8672.9-688.089Zm-5.876,5.236a.2.2,0,0,1-.022-.265,12.906,12.906,0,0,0,2.159-5.8c.541-3.1.684-6.588.684-13.714,0-5.652-.107-8.063-.359-10.943,4.031,1.008,5,1.3,5.184,1.692h7.7v-.9a24.191,24.191,0,0,0-.215-3.888c5.688.359,6.372.756,6.372,1.3,0,.432-.18.609-1.478,1.188v2.3h7.02c2.594-3.022,2.7-3.132,3.061-3.132s.541.072,2.447,1.872c1.224,1.151,1.3,1.3,1.3,1.62,0,.217-.109.359-.4.359h-25.985a2.76,2.76,0,0,1-.684.432v7.344c0,2.376-.072,4.32-.217,6.012,1.152-1.4,1.656-3.888,1.656-6.913a10.628,10.628,0,0,0-.072-1.4,13.993,13.993,0,0,1,3.671.719V-706.7h-.541a22.646,22.646,0,0,0-3.634.252l-.324-1.223a36.73,36.73,0,0,0,3.958.252h.539a20.924,20.924,0,0,0-.145-3.06c3.562.287,4.1.469,4.1.864,0,.324-.18.467-.791.791v1.4h.863c1.548-2.016,1.654-2.161,1.944-2.161s.359.037,1.512,1.081c.646.611.972.9,1.116,1.081h2.772a21.106,21.106,0,0,0-.145-3.062c3.671.289,4.21.469,4.21.866,0,.322-.18.467-.791.791v1.4h2.089c1.689-2.124,1.8-2.271,2.123-2.271.287,0,.5.11,1.765,1.26,1.078.973,1.188,1.153,1.188,1.4,0,.217-.109.324-.469.324h-6.687c0,4.714.107,7.559.107,8.026,0,.864-.719,1.26-2.267,1.26-1.045,0-1.226-.18-1.226-1.078,0-.289.073-2.378.107-5.615a2.4,2.4,0,0,1-.432.215,8.177,8.177,0,0,1-4.14,6.192c2.161.574,2.448.791,2.448,1.151,0,.469-.4.684-1.8.9-1.152.791-2.2,1.547-3.312,2.3a2.95,2.95,0,0,1,1.3,2.411,2.488,2.488,0,0,1-2.521,2.448,1.741,1.741,0,0,1-1.872-1.26,6.134,6.134,0,0,0-3.563-4.248c-.215-.072-.143-.324.072-.359a12.349,12.349,0,0,1,4.9.217c.359-1.008.685-1.944,1.009-3.1a10.053,10.053,0,0,0,.252-1.26c.971.252,1.8.434,2.448.612,1.115-1.186,1.906-3.526,1.906-6.406a10.161,10.161,0,0,0-.072-1.4,19.217,19.217,0,0,1,3.384.611v-1.6h-8.217c0,4.644.11,7.487.11,7.956,0,.864-.722,1.26-2.161,1.26-1.043,0-1.224-.182-1.224-1.081,0-.287.07-2.411.107-5.725a2.229,2.229,0,0,1-.684.4c-.469,3.526-1.871,5.615-4.606,6.983a26.592,26.592,0,0,1-1.657,7.415,16.666,16.666,0,0,1-4.607,6.658.2.2,0,0,1-.119.039A.2.2,0,0,1-8678.771-682.853Zm27.344-16.9c0-.612.07-1.692.07-3.167,0-.973,0-1.764-.07-2.628,3.022.252,3.706.432,3.706.791,0,.287-.107.432-.863.791l-.007,2.128c0,.5.07.612.791.612s.972-.07,1.3-.647a16.563,16.563,0,0,0,1.223-2.808c.073-.217.29-.145.253.072-.107,1.151-.143,1.977-.143,2.411a1.166,1.166,0,0,0,.4.936,1.6,1.6,0,0,1,.542,1.26c0,.826-.829,1.547-3.889,1.547C-8650.926-698.456-8651.428-698.995-8651.428-699.755Zm-11.563-.465c0-.537.072-1.51.072-2.95,0-1.043,0-1.727-.037-2.376,3.132.359,3.491.5,3.491.864,0,.252-.107.359-.684.647v3.673c0,.791-.611,1.008-1.872,1.008C-8662.739-699.354-8662.991-699.644-8662.991-700.22Zm-49.824-10.487c0-.5.145-2.446.145-4.714h-3.528a22.69,22.69,0,0,0-3.637.252l-.324-1.225a36.816,36.816,0,0,0,3.961.252h3.528c0-1.8,0-3.06-.037-4.031h-4.32a22.442,22.442,0,0,0-3.636.252l-.324-1.225a36.794,36.794,0,0,0,3.958.252h2.665c-.828-.215-1.223-.864-1.187-2.016.037-1.475-.035-2.556-.829-3.022h-.791a22.685,22.685,0,0,0-3.636.252l-.322-1.216a36.81,36.81,0,0,0,3.958.252h4.465v-3.382h-2.628a27.418,27.418,0,0,0-3.671.252l-.359-1.26a31.775,31.775,0,0,0,4.03.287h2.628a26.848,26.848,0,0,0-.18-3.384c5.041.4,5.615.612,5.615,1.188,0,.4-.215.649-1.224,1.045v1.151h2.374c2.017-2.376,2.089-2.448,2.376-2.448s.432.072,1.8,1.44c1.043,1.043,1.188,1.151,1.188,1.4s-.109.324-.359.324h-7.384v3.384l4.682,0c2.089-2.521,2.161-2.556,2.448-2.556.361,0,.469.035,1.764,1.33s1.333,1.368,1.333,1.62-.145.324-.359.324h-8.5c3.2,1.045,3.422,1.3,3.422,1.655s-.18.5-1.19.721c-1.4,1.26-2.159,1.944-2.95,2.663h3.636c2.124-2.591,2.2-2.628,2.519-2.628s.434.037,1.767,1.4c1.258,1.26,1.33,1.368,1.33,1.62s-.145.324-.359.324h-8.922c0,.359-.11.5-.577.791v3.239h2.987c2.087-2.663,2.159-2.7,2.483-2.7s.432.035,1.837,1.475c1.223,1.26,1.3,1.37,1.3,1.622s-.145.322-.359.322h-8.248c0,2.231.107,3.96.107,4.355,0,1.008-.756,1.585-3.022,1.585C-8712.636-709.482-8712.815-709.769-8712.815-710.707Zm1.078-12.153a1.959,1.959,0,0,1-1.437,1.979l3.886,0c.324-1.3.576-2.413.791-3.636a11.867,11.867,0,0,0,.18-1.4h-7.053C-8712.563-725.451-8711.737-724.156-8711.737-722.86Zm-16.881,12.3c-.324-1.225-1.008-2.268-3.239-3.022-.217-.072-.217-.359,0-.359,1.368-.072,2.159-.147,3.167-.289.829-.107,1.153-.611,1.153-1.8v-6.838l-1.585,1.116c-.289.826-.469,1.008-.828,1.008-.432,0-.576-.072-2.341-5.111.973-.145,1.946-.324,3.2-.612l1.547-.359v-7.344h-.541a24.663,24.663,0,0,0-3.524.252l-.361-1.225a29.194,29.194,0,0,0,3.888.252h.539a56.043,56.043,0,0,0-.252-8.026c4.5.4,5.471.719,5.471,1.333,0,.432-.252.684-1.258,1.223v5.4c1.515-2.665,1.58-2.74,1.911-2.74.287,0,.4.037,1.438,1.547.4.576.614.9.722,1.081.072-.9.145-2.268.145-3.851,0-1.333-.038-2.448-.145-3.636,2.7.539,3.671.861,4.032,1.151h10.869c1.367-1.585,1.477-1.692,1.8-1.692.287,0,.5.037,1.835,1.116,1.188.938,1.3,1.116,1.3,1.44,0,.287-.107.4-.974,1.116v.684c0,1.188.218,2.772.218,3.671,0,1.188-1.009,1.62-2.374,1.62-1.081,0-1.4-.252-1.4-1.116h-11.851v.362c0,1.043-.756,1.33-2.341,1.33-1.009,0-1.153-.145-1.153-1.186v-.182a.5.5,0,0,1-.215.072h-3.815v6.411c1.4-.359,2.7-.756,4.248-1.223a.2.2,0,0,1,.27.088.2.2,0,0,1-.09.27c-1.548,1.153-3.06,2.3-4.428,3.349.037,8.6.18,10.259.18,11.41a3.8,3.8,0,0,1-1.762,3.491,4.533,4.533,0,0,1-2.448.756C-8728.186-709.62-8728.438-709.835-8728.618-710.556Zm23.035-30.125c0,.252-.143.359-.539.647v4.752h1.909v-5.4Zm-5.543.647v4.752h1.8v-3.743c0-.5,0-1.116-.037-1.655h-1.223C-8710.584-740.429-8710.729-740.322-8711.126-740.035Zm-4.929-.217v4.969h1.834v-3.743c0-.5,0-1.116-.035-1.657h-1.187A2.782,2.782,0,0,1-8716.055-740.252Zm57.131,12.96c0-.971.252-6.91.252-18.106h-4.212c-.828,0-2.376.072-4.068.252l-.359-1.223c1.765.18,3.385.252,4.428.252h4.21c0-10.619-.035-11.734-.215-13.678,5.8.5,6.227.864,6.227,1.368,0,.4-.359.647-1.33,1.188v11.121h2.843c2.556-3.419,2.7-3.526,3.06-3.526.4,0,.539.07,2.628,2.122,1.33,1.333,1.4,1.477,1.4,1.729s-.18.4-.467.4h-9.462c0,10.764.178,16.953.178,17.889,0,1.045-.9,1.512-3.167,1.512C-8658.564-725.992-8658.924-726.137-8658.924-727.292Zm-14.077.07c0-.936.145-3.384.217-8.388l.11-10.869a31.892,31.892,0,0,1-5.867,5.219c-.181.11-.433-.142-.29-.287,2.593-2.915,5.58-8.782,7.919-15.623a19.393,19.393,0,0,0,.686-2.591c5.182,2.086,5.65,2.411,5.65,2.952s-.289.754-1.619,1.113a38.788,38.788,0,0,1-3.637,5.8c2.269.826,2.666,1.113,2.666,1.547,0,.322-.218.574-1.118.936v8.063c0,8.675.072,10.906.072,11.8,0,1.008-1.115,1.549-3.2,1.549C-8672.784-726-8673-726.286-8673-727.222Zm-59.325-31.247a19.115,19.115,0,0,0,2.161-.649,28.912,28.912,0,0,0,3.165-1.368v-10.15h-1.583a16.312,16.312,0,0,0-3.2.252l-.329-1.225a21.373,21.373,0,0,0,3.528.252h1.153c1.8-2.122,1.941-2.339,2.3-2.339.4,0,.539.07,1.765,1.151,1.619,1.4,1.764,1.585,1.764,2.051,0,.289-.182.469-1.152,1.26v8.5a6.648,6.648,0,0,0,1.152,1.258,14.932,14.932,0,0,0,5.835-4.725c.107-.18.217-.359.359-.574h-1.909c-1.078,0-1.941.07-4.03.252l-.324-1.225a40.162,40.162,0,0,0,4.354.252h.648v-3.487h-.18a22.686,22.686,0,0,0-3.636.252l-.324-1.223a36.8,36.8,0,0,0,3.96.252h.18c0-1.547-.037-2.341-.145-3.853,4.213.324,4.717.541,4.717,1.045,0,.322-.145.539-.9,1.008v1.8h3.276c0-1.547-.037-2.341-.145-3.853,4.21.289,4.714.541,4.714,1.045,0,.322-.145.539-.828,1.008v1.8h.9c1.907-2.413,1.979-2.448,2.231-2.448.289,0,.359.035,1.585,1.3,1.008,1.008,1.223,1.225,1.223,1.477a.354.354,0,0,1-.086.285.346.346,0,0,1-.273.114h-5.58v3.485h1.729c1.977-2.485,2.051-2.558,2.338-2.558.325,0,.5.072,1.872,1.4,1.153,1.116,1.226,1.188,1.226,1.512,0,.217-.107.359-.4.359l-14.9,0c2.521,1.475,3.024,1.834,3.024,2.231,0,.5-.217.647-1.656.684a21.821,21.821,0,0,1-8.5,2.628,3.98,3.98,0,0,0,1.367.756c1.226.432,3.456.539,7.093.539a132.533,132.533,0,0,0,14.974-.9c.215-.035.287.252.107.4a5.027,5.027,0,0,0-2.124,3.312c-.107.828-.359,1.225-1.115,1.26-.936.107-2.556.18-7.921.18-8.206,0-9.97-.467-11.8-1.979a7.744,7.744,0,0,1-2.593-4.247,42.546,42.546,0,0,1-5.036,5.107c-.4.973-.649,1.26-1.046,1.26C-8729.771-753.538-8730.31-754.114-8732.326-758.469Zm19.326-7.018h3.277v-3.494H-8713Zm9.83,6.689c-.756,0-1.3-.252-2.086-1.33a10.6,10.6,0,0,0-4.645-3.6c-.217-.072-.107-.4.107-.4,6.8-.1,8.493,2.023,8.493,3.5a1.789,1.789,0,0,1-.535,1.324,1.789,1.789,0,0,1-1.248.508Zm49.861-10.327c-.936,0-1.152-.145-1.332-.866-.4-1.582-.974-2.266-3.6-3.13-.215-.072-.215-.4,0-.4,1.944.037,2.772,0,3.854-.07a2.5,2.5,0,0,0,2.341-1.225,20.128,20.128,0,0,0,1.619-6.838h-16.6c-4.065,4.283-7.846,6.91-11.337,8.1-.215.072-.322-.252-.143-.357,2.3-1.225,6.443-5,9.142-9.468a51.318,51.318,0,0,0,4.786-10.005h-5.146a31.654,31.654,0,0,0-4.25.252l-.357-1.223a39.9,39.9,0,0,0,4.607.252h5.4c.4-1.3.794-2.628,1.118-4.031a27.926,27.926,0,0,0,.861-4.861c5.4,1.657,5.977,2.161,5.977,2.7,0,.5-.359.9-1.691,1.151a51.608,51.608,0,0,1-1.657,5.041h2.269c1.547-1.62,1.8-1.729,2.051-1.729.325,0,.5.072,1.981,1.153,1.3.936,1.368,1.078,1.368,1.368s-.107.4-1.153,1.151c-.359,1.116-.863,2.663-1.367,4.066h.539c1.585-1.617,1.729-1.69,2.019-1.69.322,0,.609.145,1.941,1.188,1.226.971,1.368,1.116,1.368,1.4,0,.359-.143.5-1.043,1.078-.325,1.188-.722,2.413-1.118,3.743l.18.007c1.513-1.62,1.657-1.657,1.944-1.657.361,0,.541.037,2.123,1.37,1.478,1.223,1.62,1.438,1.62,1.8s-.143.539-1.15,1.223c-.757,4.859-1.62,7.669-2.7,8.857a5.825,5.825,0,0,1-4.078,1.667C-8653.052-769.113-8653.18-769.117-8653.309-769.125Zm-13.038-13.247h11.051c.576-1.944,1.08-3.6,1.4-5h-8.925A32.448,32.448,0,0,1-8666.347-782.372Zm6.38-11.016a52.49,52.49,0,0,1-2.45,5.289h3.493c.685-2.159,1.261-3.886,1.62-5.291Zm-11.408,21.356a2.1,2.1,0,0,1-.725-1.523,2.276,2.276,0,0,1,1.043-1.907,4.478,4.478,0,0,0,2.089-3.708c0-.215.145-.287.289-.105l0,0a6.378,6.378,0,0,1,1.762,4.5c0,1.33-.9,3.237-2.843,3.237a2.1,2.1,0,0,1-.243.014A2.09,2.09,0,0,1-8671.375-772.031Zm6.229-1.4a1.635,1.635,0,0,1-.405-1.333c.215-2.3.069-3.673-.5-4.644-.109-.18-.037-.324.18-.252,3.06.857,4.21,2.981,4.21,4.568a2.2,2.2,0,0,1-2.2,2.2h-.066A1.641,1.641,0,0,1-8665.146-773.436Zm-44.862-2.626c0-.756.035-1.727.035-2.735,0-.684,0-1.907-.072-3.564,2.7.686,3.491,1.043,3.708,1.26h1.548v-2.6h-1.476a29.534,29.534,0,0,0-3.888.252l-.359-1.223a36.181,36.181,0,0,0,4.247.252h1.333c1.33-1.514,1.438-1.55,1.689-1.55.4,0,.541.035,1.729,1.081,1.008.864,1.08,1.006,1.08,1.33,0,.289-.072.4-.828.973v.684c0,.5.107,1.512.107,2.054,0,.719-.756,1.223-2.269,1.223-1.006,0-1.367-.4-1.367-1.008v-.756h-1.62a1.936,1.936,0,0,1-.5.289v2.2c0,.793.215,1.081,1.765,1.081,2.341,0,3.022-.324,3.923-1.44a10.82,10.82,0,0,0,1.368-2.124c.107-.18.324-.07.287.145a11.422,11.422,0,0,0-.359,2.231,2.271,2.271,0,0,0,.18,1.008,2.186,2.186,0,0,1,.469,1.26c0,1.188-.936,1.944-5.832,1.944C-8709.392-773.794-8710.008-774.44-8710.008-776.062Zm-11.012,0c0-.756.035-1.727.035-2.735,0-.684,0-1.907-.069-3.564,2.59.686,3.347,1.045,3.6,1.262h1.477V-783.7h-1.621a29.6,29.6,0,0,0-3.889.252l-.359-1.223a36.218,36.218,0,0,0,4.25.252h1.547c1.224-1.4,1.333-1.477,1.585-1.477.324,0,.467.035,1.689,1.043.938.791,1.011.936,1.011,1.3,0,.289-.145.4-.828.973v.679c0,.5.107,1.512.107,2.054,0,.719-.542,1.223-2.052,1.223-1.046,0-1.44-.4-1.44-1.008v-.756h-1.591a1.859,1.859,0,0,1-.5.289v2.266c0,.793.217,1.081,1.944,1.081,1.946,0,2.413-.324,3.313-1.44a9.888,9.888,0,0,0,1.368-2.268c.072-.143.324-.072.287.145a16.593,16.593,0,0,0-.359,2.231,2.013,2.013,0,0,0,.18.936,2.2,2.2,0,0,1,.469,1.26c0,1.188-.936,2.089-5.221,2.089C-8720.407-773.8-8721.02-774.445-8721.02-776.066Zm60.9,1.517a1.527,1.527,0,0,1-.425-1.238c.037-1.585-.035-3.1-1.081-4.14-.143-.145-.072-.289.145-.252,3.167.5,4.68,2.124,4.68,4.066a2.1,2.1,0,0,1-2.087,2.016c-.048,0-.1.007-.145.007A1.521,1.521,0,0,1-8660.12-774.55Zm4.907-1.017a1.622,1.622,0,0,1-.546-1.157c-.107-1.58-.287-3.02-1.365-3.7v0c-.18-.107-.109-.324.107-.289,3.022.289,4.932,1.4,4.932,3.6a2,2,0,0,1-1.909,1.944c-.054.005-.106.008-.159.008A1.607,1.607,0,0,1-8655.213-775.567Zm-70.238-2.268c-1.439,0-2.014-.936-2.123-2.7a6.075,6.075,0,0,0-2.087-4.57c-.18-.145.07-.392.287-.362,4.537.5,6.658,2.628,6.658,4.931a2.462,2.462,0,0,1-.723,2,2.475,2.475,0,0,1-1.736.712A2.5,2.5,0,0,1-8725.451-777.835Zm56.439-17.51a1.943,1.943,0,0,1-.539-1.532c0-2.339-.287-3.779-1.478-4.572-.171-.11-.063-.324.153-.324l-.007,0c3.744.18,5.938,2.051,5.938,4.138a2.661,2.661,0,0,1-.664,1.984,2.671,2.671,0,0,1-1.892.9c-.037,0-.075,0-.113,0A1.94,1.94,0,0,1-8669.012-795.345Z" transform="translate(8732.999 802.998)"/></svg>