<svg id="Audience_Network_Alvin_Logo_Grape_rgb" xmlns="http://www.w3.org/2000/svg" viewBox="0 0 108.179 20.677">
  <defs>
    <style>
      .cls-1 {
        fill: #8da291;
      }
    </style>
  </defs>
  <path id="Path_572" data-name="Path 572" class="cls-1" d="M120.2,567.518V569.5H117.45v3.285H120.2V582.8h4.078V572.79h3.058l.338-3.3h-3.4v-2.039c0-1.229.37-1.788,1.643-1.788h1.812v-3.1a19.528,19.528,0,0,0-2.377-.14C121.554,562.43,120.2,564.192,120.2,567.518Z" transform="translate(-117.45 -562.43)"/>
  <path id="Path_573" data-name="Path 573" class="cls-1" d="M162.864,588.05a4.007,4.007,0,0,0-3.88-2.33c-3.737,0-5.534,2.8-5.534,6.513v.851c0,3.716,1.783,6.513,5.534,6.513a3.963,3.963,0,0,0,3.88-2.292v2.013h3.906V586.008h-3.906Zm-.172,5.284c0,1.9-.848,3.1-2.519,3.1-1.9,0-2.621-1.314-2.621-3.3v-.95c0-1.983.737-3.3,2.621-3.3,1.672,0,2.519,1.2,2.519,3.1Z" transform="translate(-142.964 -578.936)"/>
  <path id="Path_574" data-name="Path 574" class="cls-1" d="M211.667,588.881a6.485,6.485,0,0,1,2.717.615l.906-2.851a7.54,7.54,0,0,0-3.906-.894c-4.783,0-6.964,2.546-6.964,6.623v.615c0,4.078,2.179,6.623,6.964,6.623a7.518,7.518,0,0,0,3.906-.894l-.906-2.852a6.481,6.481,0,0,1-2.717.615c-2.208,0-3.172-1.258-3.172-3.411v-.781C208.5,590.139,209.459,588.881,211.667,588.881Z" transform="translate(-179.089 -578.958)"/>
  <path id="Path_575" data-name="Path 575" class="cls-1" d="M250.2,585.75c-4.442,0-6.623,2.49-6.623,6.262v1.165c0,3.912,1.925,6.457,7.078,6.457a13.406,13.406,0,0,0,5.243-.976l-.737-2.767a11.721,11.721,0,0,1-4.331.81c-2.266,0-3.087-.81-3.172-2.621h8.566v-2.123C256.227,588.267,254.395,585.75,250.2,585.75Zm2.38,5.7h-4.925c0-1.788.708-2.936,2.546-2.936,1.785,0,2.38,1.145,2.38,2.6Z" transform="translate(-206.843 -578.958)"/>
  <path id="Path_576" data-name="Path 576" class="cls-1" d="M300.734,569.293a4.051,4.051,0,0,0-3.786,2.123V562.53l-4.078.364v19.987h3.851v-2.013a4.173,4.173,0,0,0,4.02,2.292c3.737,0,5.534-2.793,5.534-6.513v-.839C306.283,572.089,304.471,569.293,300.734,569.293Zm1.471,7.436c0,1.873-.737,3.271-2.688,3.271-1.669,0-2.575-1.165-2.575-3.076v-1.4c0-1.9.906-3.076,2.575-3.076,1.954,0,2.688,1.4,2.688,3.271Z" transform="translate(-241.776 -562.501)"/>
  <path id="Path_577" data-name="Path 577" class="cls-1" d="M350.309,585.75c-4.5,0-6.7,2.767-6.7,6.6v.67c0,3.827,2.208,6.6,6.7,6.6s6.7-2.767,6.7-6.6v-.67C357.017,588.517,354.809,585.75,350.309,585.75Zm2.621,7.547c0,1.748-.737,3.16-2.621,3.16s-2.621-1.4-2.621-3.16v-1.229c0-1.748.737-3.157,2.621-3.157s2.621,1.4,2.621,3.157Z" transform="translate(-277.738 -578.958)"/>
  <path id="Path_578" data-name="Path 578" class="cls-1" d="M401.039,585.75c-4.5,0-6.7,2.767-6.7,6.6v.67c0,3.827,2.208,6.6,6.7,6.6s6.7-2.767,6.7-6.6v-.67C407.747,588.517,405.539,585.75,401.039,585.75Zm2.621,7.547c0,1.748-.737,3.16-2.621,3.16s-2.621-1.4-2.621-3.16v-1.229c0-1.748.737-3.157,2.621-3.157s2.621,1.4,2.621,3.157Z" transform="translate(-313.692 -578.958)"/>
  <path id="Path_579" data-name="Path 579" class="cls-1" d="M458.038,569.573h-4.331l-4.019,6.347V562.53l-4.078.361v19.987h4.078v-6.513l4.188,6.513h4.331l-4.386-6.734Z" transform="translate(-350.029 -562.501)"/>
</svg>
