<svg id="Google_2015_logo" xmlns="http://www.w3.org/2000/svg" viewBox="0 0 94.22 31.015">
  <defs>
    <style>
      .cls-1 {
        fill: #8da291;
      }
    </style>
  </defs>
  <path id="Path_580" data-name="Path 580" class="cls-1" d="M86.8,32.75A7.775,7.775,0,1,1,79.025,25,7.655,7.655,0,0,1,86.8,32.75Zm-3.4,0a4.383,4.383,0,1,0-8.743,0,4.383,4.383,0,1,0,8.743,0Z" transform="translate(-46.479 -16.428)"/>
  <path id="Path_581" data-name="Path 581" class="cls-1" d="M134.8,32.75A7.775,7.775,0,1,1,127.025,25,7.655,7.655,0,0,1,134.8,32.75Zm-3.4,0a4.383,4.383,0,1,0-8.743,0,4.383,4.383,0,1,0,8.743,0Z" transform="translate(-77.706 -16.428)"/>
  <path id="Path_582" data-name="Path 582" class="cls-1" d="M182.088,25.468V39.383c0,5.724-3.375,8.061-7.366,8.061a7.38,7.38,0,0,1-6.87-4.567l2.963-1.233a4.281,4.281,0,0,0,3.9,2.75c2.554,0,4.137-1.576,4.137-4.543V38.736h-.119a5.277,5.277,0,0,1-4.081,1.761,7.756,7.756,0,0,1,0-15.5,5.371,5.371,0,0,1,4.081,1.733h.119V25.472h3.232Zm-2.991,7.31c0-2.729-1.821-4.724-4.137-4.724a4.482,4.482,0,0,0-4.315,4.724,4.448,4.448,0,0,0,4.315,4.668C177.276,37.447,179.1,35.479,179.1,32.778Z" transform="translate(-108.921 -16.428)"/>
  <path id="Path_583" data-name="Path 583" class="cls-1" d="M218.82,3V25.713H215.5V3Z" transform="translate(-140.324 -2.116)"/>
  <path id="Path_584" data-name="Path 584" class="cls-1" d="M240.6,35.295l2.642,1.761a7.714,7.714,0,0,1-6.457,3.435,7.583,7.583,0,0,1-7.691-7.75c0-4.609,3.316-7.75,7.31-7.75a7.2,7.2,0,0,1,6.632,4.93l.353.881-10.361,4.291a3.944,3.944,0,0,0,3.756,2.348A4.423,4.423,0,0,0,240.6,35.295Zm-8.131-2.788,6.926-2.876a3,3,0,0,0-2.876-1.642A4.251,4.251,0,0,0,232.465,32.506Z" transform="translate(-149.165 -16.422)"/>
  <path id="Path_585" data-name="Path 585" class="cls-1" d="M12.566,14.776V11.488h11.08a10.9,10.9,0,0,1,.164,1.985,10.859,10.859,0,0,1-2.848,7.691,11,11,0,0,1-8.393,3.375A12.2,12.2,0,0,1,.36,12.5,12.2,12.2,0,0,1,12.569.47a11.467,11.467,0,0,1,8.247,3.316L18.5,6.106a8.382,8.382,0,0,0-5.93-2.348A8.633,8.633,0,0,0,3.935,12.5a8.633,8.633,0,0,0,8.631,8.746,8.051,8.051,0,0,0,6.077-2.408,6.815,6.815,0,0,0,1.782-4.071Z" transform="translate(-0.36 -0.47)"/>
</svg>
