<svg xmlns="http://www.w3.org/2000/svg" viewBox="0 0 40 40"><defs><style>.a{fill:#3f5d45;}</style></defs><path class="a" d="M-7646.785-516.572a19.906,19.906,0,0,1-6.357-4.286,19.929,19.929,0,0,1-4.286-6.357A19.862,19.862,0,0,1-7659-535a19.864,19.864,0,0,1,1.572-7.787,19.929,19.929,0,0,1,4.286-6.357,19.936,19.936,0,0,1,6.357-4.286A19.9,19.9,0,0,1-7639-555a19.892,19.892,0,0,1,7.785,1.57,19.964,19.964,0,0,1,6.358,4.286,19.954,19.954,0,0,1,4.287,6.357A19.906,19.906,0,0,1-7619-535a19.9,19.9,0,0,1-1.57,7.785,19.954,19.954,0,0,1-4.287,6.357,19.933,19.933,0,0,1-6.358,4.286A19.86,19.86,0,0,1-7639-515,19.865,19.865,0,0,1-7646.785-516.572Zm.194-36.4a19.408,19.408,0,0,0-6.2,4.179,19.43,19.43,0,0,0-4.179,6.2A19.368,19.368,0,0,0-7658.5-535a19.366,19.366,0,0,0,1.534,7.589,19.409,19.409,0,0,0,4.179,6.2,19.408,19.408,0,0,0,6.2,4.179A19.389,19.389,0,0,0-7639-515.5a19.378,19.378,0,0,0,7.59-1.534,19.435,19.435,0,0,0,6.2-4.179,19.417,19.417,0,0,0,4.179-6.2A19.372,19.372,0,0,0-7619.5-535a19.375,19.375,0,0,0-1.532-7.591,19.438,19.438,0,0,0-4.179-6.2,19.435,19.435,0,0,0-6.2-4.179A19.376,19.376,0,0,0-7639-554.5,19.388,19.388,0,0,0-7646.591-552.968Zm.584,34.553a17.917,17.917,0,0,1-5.72-3.858,17.913,17.913,0,0,1-3.858-5.72A17.9,17.9,0,0,1-7657-535a17.888,17.888,0,0,1,1.415-7.006,17.9,17.9,0,0,1,3.858-5.722,17.948,17.948,0,0,1,5.72-3.858A17.9,17.9,0,0,1-7639-553a17.888,17.888,0,0,1,7.006,1.415,17.94,17.94,0,0,1,5.722,3.858,17.938,17.938,0,0,1,3.857,5.722A17.88,17.88,0,0,1-7621-535a17.894,17.894,0,0,1-1.415,7.006,17.952,17.952,0,0,1-3.857,5.72,17.909,17.909,0,0,1-5.722,3.858A17.854,17.854,0,0,1-7639-517,17.868,17.868,0,0,1-7646.007-518.415Zm-1.047-6.255a9.987,9.987,0,0,0,3.942.765,10.129,10.129,0,0,0,6.543-2.041,5.905,5.905,0,0,0,2.341-4.527,5.851,5.851,0,0,0-2.4-4.721l-2.61-2.347c-1.126-1.015-2.228-2.161-2.228-4.017,0-2.124,1.845-3.606,4.486-3.606a5.358,5.358,0,0,1,2.974.909,3.462,3.462,0,0,1,1.543,2.931,5.747,5.747,0,0,1-.242,1.651l-.021.079h.352l2.022-5.6-.44-.088a1.047,1.047,0,0,1-1.055.761,5.449,5.449,0,0,1-1.724-.4,9.841,9.841,0,0,0-3.408-.655,9.032,9.032,0,0,0-5.371,1.645,5.057,5.057,0,0,0-2.224,4.044c0,2.249,1.161,3.76,2.9,5.338l2.082,1.9a4.646,4.646,0,0,1,1.761,3.637,4.391,4.391,0,0,1-1.426,3.391,5.908,5.908,0,0,1-4,1.3,6.058,6.058,0,0,1-3.319-1.023,3.623,3.623,0,0,1-1.7-3.024,4.917,4.917,0,0,1,.376-1.715l.006-.017h-.382l-2.082,5.836.412.088a1.161,1.161,0,0,1,1.113-.938A4.928,4.928,0,0,1-7647.054-524.67Zm16.638-10.533v0a3.763,3.763,0,0,1-.746,1.18l-.105.138c-.046.062-.094.125-.145.188a1.955,1.955,0,0,0-.542,1.13.79.79,0,0,0,.854.786.889.889,0,0,0,.919-.919,5.571,5.571,0,0,0-.088-.74l-.029-.2a4.186,4.186,0,0,1-.058-1.5l.007-.054a5.508,5.508,0,0,1,.786,1.553c.246.669.423,1.153,1.119,1.153a.906.906,0,0,0,.869-.936c0-.381-.26-.673-.769-.869a9.294,9.294,0,0,1-1.955-.951,4.483,4.483,0,0,1,.553-.031,9,9,0,0,1,1.2.1c.063.008.127.017.19.027a3.84,3.84,0,0,0,.544.056.848.848,0,0,0,.936-.869.919.919,0,0,0-.869-.919,2.177,2.177,0,0,0-1.238.717,3.761,3.761,0,0,1-1.336.853,4.1,4.1,0,0,1,.836-1.32c.046-.062.094-.123.144-.186a1.961,1.961,0,0,0,.54-1.132.788.788,0,0,0-.852-.786.889.889,0,0,0-.919.919,5.588,5.588,0,0,0,.089.738l.029.2a4.338,4.338,0,0,1,.067,1.553,5.588,5.588,0,0,1-.792-1.545c-.25-.675-.431-1.161-1.13-1.161a.905.905,0,0,0-.869.936c0,.381.26.673.769.869a8.827,8.827,0,0,1,1.955.951,4.959,4.959,0,0,1-.558.031,9.188,9.188,0,0,1-1.2-.1l-.2-.029a3.6,3.6,0,0,0-.536-.056.847.847,0,0,0-.936.869.917.917,0,0,0,.869.919,2.182,2.182,0,0,0,1.236-.719,3.975,3.975,0,0,1,1.352-.852Z" transform="translate(7659 554.999)"/></svg>