<svg id="Yahoo__logo" data-name="Yahoo!_logo" xmlns="http://www.w3.org/2000/svg" viewBox="0 0 96.522 22.4">
  <defs>
    <style>
      .cls-1 {
        fill: #8da291;
      }
    </style>
  </defs>
  <g id="Group_74" data-name="Group 74" transform="translate(0)">
    <g id="Group_71" data-name="Group 71" transform="translate(0 0)">
      <path id="Path_586" data-name="Path 586" class="cls-1" d="M-148.692,142.345a1.32,1.32,0,0,1,1.235,1.357,4.915,4.915,0,0,1-.178.929c-.5,2.186-2.433,9.912-3.248,15.068l-.75-.75,2.388-15.86Z" transform="translate(243.98 -142.087)"/>
      <path id="Path_587" data-name="Path 587" class="cls-1" d="M-398.51,153.21a6.216,6.216,0,0,1-2.946,0l1.532,1.591Z" transform="translate(445.529 -150.853)"/>
      <path id="Path_588" data-name="Path 588" class="cls-1" d="M-465.47,153.21a6.216,6.216,0,0,0,2.946,0l-1.532,1.591Z" transform="translate(497.173 -150.853)"/>
      <path id="Path_589" data-name="Path 589" class="cls-1" d="M-516.57,153.18c2.259,5.718,5.815,14.372,7.586,17.679l-2.622-.8-6.489-16.229Z" transform="translate(539.63 -150.829)"/>
      <path id="Path_590" data-name="Path 590" class="cls-1" d="M-520.85,153.175a2.917,2.917,0,0,0,2.054,0l-1.46.9Z" transform="translate(541.852 -150.825)"/>
      <path id="Path_591" data-name="Path 591" class="cls-1" d="M-519.311,156.4l6.612,16.217a3.329,3.329,0,0,1-.946.844c-1.916-4.936-3.975-9.874-5.718-14.746l-.861-1.459Z" transform="translate(541.347 -153.431)"/>
      <path id="Path_592" data-name="Path 592" class="cls-1" d="M-553.05,173.461l-1.952-.691,6.873-16.126.766-.237v2.387c-1.069,3.084-3.781,9.85-5.687,14.667Z" transform="translate(569.405 -153.432)"/>
      <path id="Path_593" data-name="Path 593" class="cls-1" d="M-553.3,141.015l.648,1.473,1.65-.766.671-.707a6.089,6.089,0,0,1-2.969,0Z" transform="translate(568.032 -141.014)"/>
      <path id="Path_594" data-name="Path 594" class="cls-1" d="M-585.026,153.857l-1.119.412-.707-1.237,7.012-11.195.5-.172a6.152,6.152,0,0,0,1.938-.653c-1.114,1.5-5.168,8.535-7.625,12.845Z" transform="translate(595.101 -141.012)"/>
      <path id="Path_595" data-name="Path 595" class="cls-1" d="M-588.006,153.682l.295-.295,6.937-11.723-1.044-.651c-.837,1.56-3.926,6.608-5.892,9.84l-.943,1.768Z" transform="translate(596.554 -141.013)"/>
      <path id="Path_596" data-name="Path 596" class="cls-1" d="M-620.4,141.015c1.538,2.725,3.9,6.538,5.892,9.84v2.534l-.471.471-6.894-12.256Z" transform="translate(623.355 -141.014)"/>
      <path id="Path_597" data-name="Path 597" class="cls-1" d="M-627.706,141.755l1.136-.741a5.492,5.492,0,0,1-2.946,0l.471.53Z" transform="translate(629.521 -141.014)"/>
      <path id="Path_598" data-name="Path 598" class="cls-1" d="M-620.7,153.388l-.53.766-.707-.295c-1.316-2.275-5.186-9.206-7.6-12.845a4.487,4.487,0,0,0,1.915.673Z" transform="translate(629.539 -141.014)"/>
      <path id="Path_599" data-name="Path 599" class="cls-1" d="M-584.814,215l-2-.943.177-8.367.412-.648,1.237.471Z" transform="translate(595.073 -192.673)"/>
      <path id="Path_600" data-name="Path 600" class="cls-1" d="M-589.7,214.356l-1.414.648.177-9.486,1.237-.471Z" transform="translate(598.543 -192.673)"/>
      <path id="Path_601" data-name="Path 601" class="cls-1" d="M-560,170.855c2.458-5.011,5.192-11.73,7.564-17.684l1.038.626-6.711,16.417-1.361.465Z" transform="translate(573.437 -150.821)"/>
      <path id="Path_602" data-name="Path 602" class="cls-1" d="M-485.283,239.682l2.063.869a6.056,6.056,0,0,0-2.939.005l.4-.992Z" transform="translate(513.865 -220.521)"/>
      <path id="Path_603" data-name="Path 603" class="cls-1" d="M-539.25,212.092l1.45-.622q3.134.11,6.268,0l1.471.641-1.37.3h-6.781Z" transform="translate(556.697 -197.855)"/>
      <path id="Path_604" data-name="Path 604" class="cls-1" d="M-538.316,215.167l-.974-.612q4.59-.07,9.195.018l-.974.594C-533.485,215.089-535.9,215.1-538.316,215.167Z" transform="translate(556.729 -200.319)"/>
      <path id="Path_605" data-name="Path 605" class="cls-1" d="M-458.83,170.889l-2.062-.707v-15.85l.589-.295,1.473-.825a168.633,168.633,0,0,0,0,17.677Z" transform="translate(493.48 -150.855)"/>
      <path id="Path_606" data-name="Path 606" class="cls-1" d="M-464,170.061v.412l-1.473.412c.234-5.883.257-11.775,0-17.677l1.473.825Z" transform="translate(497.172 -150.852)"/>
      <path id="Path_607" data-name="Path 607" class="cls-1" d="M-401.46,170.889l2.062-.707v-15.85l-.589-.295-1.473-.825a168.633,168.633,0,0,1,0,17.677Z" transform="translate(445.532 -150.855)"/>
      <path id="Path_608" data-name="Path 608" class="cls-1" d="M-457.815,196.455l1.238-.552c3.29.083,6.585.077,9.882,0l1.242.552-1.536.367h-9.6Z" transform="translate(490.997 -185.296)"/>
    </g>
    <path id="Path_609" data-name="Path 609" class="cls-1" d="M-368.612,153.175c-5.787,0-8.674,3.618-8.674,8.879,0,6.589,4.371,8.871,8.6,8.871,5.022,0,8.623-2.826,8.623-8.855,0-5.8-3.408-8.9-8.547-8.9Zm-.173.84c.054,0,.109,0,.164,0,3.822,0,6.629,2.6,6.629,8.043s-2.8,8.036-6.621,8.036c-4.166,0-6.614-2.985-6.614-8.021,0-5.695,3.016-7.987,6.443-8.058Z" transform="translate(426.03 -150.825)"/>
    <path id="Path_610" data-name="Path 610" class="cls-1" d="M-372.284,151.975c-6.25,0-9.529,3.963-9.529,9.1,0,5.623,3.58,9.052,9.52,9.052,6.422,0,9.558-3.865,9.558-8.993,0-5.718-3.746-9.159-9.549-9.159Zm.018.586c4.935,0,8.207,2.969,8.207,8.54,0,5.789-3.458,8.5-8.28,8.5-4.06,0-8.256-2.191-8.256-8.518C-380.6,156.034-377.822,152.561-372.266,152.561Z" transform="translate(429.681 -149.857)"/>
    <path id="Path_611" data-name="Path 611" class="cls-1" d="M-261.963,148.495c-5.873,0-9.9,3.32-9.9,9.792,0,6.349,3.744,9.9,9.921,9.9,4.679,0,9.8-2.4,9.8-9.8,0-7.989-5.6-9.882-9.829-9.882Zm-.031.707c4.674,0,8.116,2.839,8.116,9.1,0,6.807-4.164,9.015-8.109,9.015-4.215,0-8.054-2.473-8.054-9.15C-270.041,151.25-265.785,149.2-261.994,149.2Z" transform="translate(340.975 -147.049)"/>
    <path id="Path_612" data-name="Path 612" class="cls-1" d="M-266.689,146.465c-6.224,0-10.981,3.534-10.981,10.1,0,5.414,3.165,10.178,11.033,10.178,6.662,0,11.011-3.662,11.011-10.083,0-6.055-4.057-10.2-11.062-10.2Zm.039.659c4.115,0,9.562,1.844,9.562,9.615,0,7.2-4.988,9.538-9.54,9.538-6.01,0-9.65-3.45-9.65-9.626C-276.278,150.355-272.363,147.124-266.65,147.124Z" transform="translate(345.662 -145.411)"/>
    <path id="Path_613" data-name="Path 613" class="cls-1" d="M-161.1,243.794a1.361,1.361,0,0,1,1.389-1.467,1.4,1.4,0,0,1,1.551,1.378,1.3,1.3,0,0,1-1.339,1.445C-160.384,245.15-161.1,244.691-161.1,243.794Z" transform="translate(251.617 -222.75)"/>
    <path id="Path_614" data-name="Path 614" class="cls-1" d="M-153.44,159.426c.718-5.078,1.155-10.414,1.575-15.736a1.34,1.34,0,0,1,1.408-1.475,2.765,2.765,0,0,1,.307.026l-.192,1.272-2.52,15.772Z" transform="translate(245.437 -141.983)"/>
    <g id="Group_72" data-name="Group 72" transform="translate(7.428 11.159)">
      <path id="Path_615" data-name="Path 615" class="cls-1" d="M-591.1,252.246l1.417-1.038,1.411,1.038a9.478,9.478,0,0,0-1.412-.142,10.868,10.868,0,0,0-1.417.142Z" transform="translate(591.1 -241.074)"/>
      <path id="Path_616" data-name="Path 616" class="cls-1" d="M-560,241.133l1.976-.854a3,3,0,0,0,.94.849,6,6,0,0,0-2.916,0Z" transform="translate(566.01 -232.256)"/>
      <path id="Path_617" data-name="Path 617" class="cls-1" d="M-465.47,241.246a6.21,6.21,0,0,1,2.942,0l-1.469-.825Z" transform="translate(489.746 -232.371)"/>
      <path id="Path_618" data-name="Path 618" class="cls-1" d="M-456.586,199.416l-1.241-.654c4.122.043,8.243.05,12.365,0l-1.239.65q-4.942-.066-9.885,0Z" transform="translate(483.579 -198.762)"/>
    </g>
    <g id="Group_73" data-name="Group 73" transform="translate(44.076 0.266)">
      <path id="Path_619" data-name="Path 619" class="cls-1" d="M-393.835,170.061v.412l1.473.412c-.234-5.883-.257-11.775,0-17.677l-1.473.825Z" transform="translate(395.304 -151.118)"/>
      <path id="Path_620" data-name="Path 620" class="cls-1" d="M-398.5,241.246a6.21,6.21,0,0,0-2.942,0l1.469-.825Z" transform="translate(401.438 -221.478)"/>
      <path id="Path_621" data-name="Path 621" class="cls-1" d="M-152.806,228.2l-.653.6a1.9,1.9,0,0,1,1.1.17Z" transform="translate(201.376 -211.619)"/>
      <ellipse id="Ellipse_8" data-name="Ellipse 8" class="cls-1" cx="1.436" cy="1.254" rx="1.436" ry="1.254" transform="translate(49.539)"/>
    </g>
  </g>
</svg>
